%TF.GenerationSoftware,KiCad,Pcbnew,9.0.2*%
%TF.CreationDate,2025-05-19T21:22:28-04:00*%
%TF.ProjectId,ArduinoMega_Ethernet,41726475-696e-46f4-9d65-67615f457468,rev?*%
%TF.SameCoordinates,Original*%
%TF.FileFunction,Paste,Top*%
%TF.FilePolarity,Positive*%
%FSLAX46Y46*%
G04 Gerber Fmt 4.6, Leading zero omitted, Abs format (unit mm)*
G04 Created by KiCad (PCBNEW 9.0.2) date 2025-05-19 21:22:28*
%MOMM*%
%LPD*%
G01*
G04 APERTURE LIST*
G04 Aperture macros list*
%AMRoundRect*
0 Rectangle with rounded corners*
0 $1 Rounding radius*
0 $2 $3 $4 $5 $6 $7 $8 $9 X,Y pos of 4 corners*
0 Add a 4 corners polygon primitive as box body*
4,1,4,$2,$3,$4,$5,$6,$7,$8,$9,$2,$3,0*
0 Add four circle primitives for the rounded corners*
1,1,$1+$1,$2,$3*
1,1,$1+$1,$4,$5*
1,1,$1+$1,$6,$7*
1,1,$1+$1,$8,$9*
0 Add four rect primitives between the rounded corners*
20,1,$1+$1,$2,$3,$4,$5,0*
20,1,$1+$1,$4,$5,$6,$7,0*
20,1,$1+$1,$6,$7,$8,$9,0*
20,1,$1+$1,$8,$9,$2,$3,0*%
%AMFreePoly0*
4,1,19,0.079643,0.182453,0.084467,0.178033,0.290533,-0.028033,0.312215,-0.074529,0.312500,-0.081066,0.312500,-0.125000,0.294953,-0.173209,0.250524,-0.198861,0.237500,-0.200000,-0.237500,-0.200000,-0.285709,-0.182453,-0.311361,-0.138024,-0.312500,-0.125000,-0.312500,0.125000,-0.294953,0.173209,-0.250524,0.198861,-0.237500,0.200000,0.031434,0.200000,0.079643,0.182453,0.079643,0.182453,
$1*%
%AMFreePoly1*
4,1,19,0.285709,0.182453,0.311361,0.138024,0.312500,0.125000,0.312500,0.081066,0.294953,0.032857,0.290533,0.028033,0.084467,-0.178033,0.037971,-0.199715,0.031434,-0.200000,-0.237500,-0.200000,-0.285709,-0.182453,-0.311361,-0.138024,-0.312500,-0.125000,-0.312500,0.125000,-0.294953,0.173209,-0.250524,0.198861,-0.237500,0.200000,0.237500,0.200000,0.285709,0.182453,0.285709,0.182453,
$1*%
%AMFreePoly2*
4,1,19,0.173209,0.294953,0.198861,0.250524,0.200000,0.237500,0.200000,-0.237500,0.182453,-0.285709,0.138024,-0.311361,0.125000,-0.312500,-0.125000,-0.312500,-0.173209,-0.294953,-0.198861,-0.250524,-0.200000,-0.237500,-0.200000,0.031434,-0.182453,0.079643,-0.178033,0.084467,0.028033,0.290533,0.074529,0.312215,0.081066,0.312500,0.125000,0.312500,0.173209,0.294953,0.173209,0.294953,
$1*%
%AMFreePoly3*
4,1,19,-0.032857,0.294953,-0.028033,0.290533,0.178033,0.084467,0.199715,0.037971,0.200000,0.031434,0.200000,-0.237500,0.182453,-0.285709,0.138024,-0.311361,0.125000,-0.312500,-0.125000,-0.312500,-0.173209,-0.294953,-0.198861,-0.250524,-0.200000,-0.237500,-0.200000,0.237500,-0.182453,0.285709,-0.138024,0.311361,-0.125000,0.312500,-0.081066,0.312500,-0.032857,0.294953,-0.032857,0.294953,
$1*%
%AMFreePoly4*
4,1,19,0.285709,0.182453,0.311361,0.138024,0.312500,0.125000,0.312500,-0.125000,0.294953,-0.173209,0.250524,-0.198861,0.237500,-0.200000,-0.031434,-0.200000,-0.079643,-0.182453,-0.084467,-0.178033,-0.290533,0.028033,-0.312215,0.074529,-0.312500,0.081066,-0.312500,0.125000,-0.294953,0.173209,-0.250524,0.198861,-0.237500,0.200000,0.237500,0.200000,0.285709,0.182453,0.285709,0.182453,
$1*%
%AMFreePoly5*
4,1,19,0.285709,0.182453,0.311361,0.138024,0.312500,0.125000,0.312500,-0.125000,0.294953,-0.173209,0.250524,-0.198861,0.237500,-0.200000,-0.237500,-0.200000,-0.285709,-0.182453,-0.311361,-0.138024,-0.312500,-0.125000,-0.312500,-0.081066,-0.294953,-0.032857,-0.290533,-0.028033,-0.084467,0.178033,-0.037971,0.199715,-0.031434,0.200000,0.237500,0.200000,0.285709,0.182453,0.285709,0.182453,
$1*%
%AMFreePoly6*
4,1,19,0.173209,0.294953,0.198861,0.250524,0.200000,0.237500,0.200000,-0.031434,0.182453,-0.079643,0.178033,-0.084467,-0.028033,-0.290533,-0.074529,-0.312215,-0.081066,-0.312500,-0.125000,-0.312500,-0.173209,-0.294953,-0.198861,-0.250524,-0.200000,-0.237500,-0.200000,0.237500,-0.182453,0.285709,-0.138024,0.311361,-0.125000,0.312500,0.125000,0.312500,0.173209,0.294953,0.173209,0.294953,
$1*%
%AMFreePoly7*
4,1,19,0.173209,0.294953,0.198861,0.250524,0.200000,0.237500,0.200000,-0.237500,0.182453,-0.285709,0.138024,-0.311361,0.125000,-0.312500,0.081066,-0.312500,0.032857,-0.294953,0.028033,-0.290533,-0.178033,-0.084467,-0.199715,-0.037971,-0.200000,-0.031434,-0.200000,0.237500,-0.182453,0.285709,-0.138024,0.311361,-0.125000,0.312500,0.125000,0.312500,0.173209,0.294953,0.173209,0.294953,
$1*%
G04 Aperture macros list end*
%ADD10RoundRect,0.200000X0.275000X-0.200000X0.275000X0.200000X-0.275000X0.200000X-0.275000X-0.200000X0*%
%ADD11RoundRect,0.200000X-0.275000X0.200000X-0.275000X-0.200000X0.275000X-0.200000X0.275000X0.200000X0*%
%ADD12RoundRect,0.150000X0.587500X0.150000X-0.587500X0.150000X-0.587500X-0.150000X0.587500X-0.150000X0*%
%ADD13RoundRect,0.200000X-0.200000X-0.275000X0.200000X-0.275000X0.200000X0.275000X-0.200000X0.275000X0*%
%ADD14RoundRect,0.225000X-0.225000X-0.250000X0.225000X-0.250000X0.225000X0.250000X-0.225000X0.250000X0*%
%ADD15RoundRect,0.200000X0.200000X0.275000X-0.200000X0.275000X-0.200000X-0.275000X0.200000X-0.275000X0*%
%ADD16RoundRect,0.167500X-0.167500X0.167500X-0.167500X-0.167500X0.167500X-0.167500X0.167500X0.167500X0*%
%ADD17RoundRect,0.050000X-0.050000X0.375000X-0.050000X-0.375000X0.050000X-0.375000X0.050000X0.375000X0*%
%ADD18RoundRect,0.050000X-0.375000X0.050000X-0.375000X-0.050000X0.375000X-0.050000X0.375000X0.050000X0*%
%ADD19RoundRect,0.218750X0.256250X-0.218750X0.256250X0.218750X-0.256250X0.218750X-0.256250X-0.218750X0*%
%ADD20RoundRect,0.225000X0.225000X0.250000X-0.225000X0.250000X-0.225000X-0.250000X0.225000X-0.250000X0*%
%ADD21RoundRect,0.250000X0.475000X-0.337500X0.475000X0.337500X-0.475000X0.337500X-0.475000X-0.337500X0*%
%ADD22RoundRect,0.075000X-0.662500X-0.075000X0.662500X-0.075000X0.662500X0.075000X-0.662500X0.075000X0*%
%ADD23RoundRect,0.075000X-0.075000X-0.662500X0.075000X-0.662500X0.075000X0.662500X-0.075000X0.662500X0*%
%ADD24RoundRect,0.150000X0.150000X-0.512500X0.150000X0.512500X-0.150000X0.512500X-0.150000X-0.512500X0*%
%ADD25RoundRect,0.225000X0.250000X-0.225000X0.250000X0.225000X-0.250000X0.225000X-0.250000X-0.225000X0*%
%ADD26FreePoly0,90.000000*%
%ADD27RoundRect,0.100000X0.100000X-0.212500X0.100000X0.212500X-0.100000X0.212500X-0.100000X-0.212500X0*%
%ADD28FreePoly1,90.000000*%
%ADD29FreePoly2,90.000000*%
%ADD30RoundRect,0.100000X0.212500X-0.100000X0.212500X0.100000X-0.212500X0.100000X-0.212500X-0.100000X0*%
%ADD31FreePoly3,90.000000*%
%ADD32FreePoly4,90.000000*%
%ADD33FreePoly5,90.000000*%
%ADD34FreePoly6,90.000000*%
%ADD35FreePoly7,90.000000*%
%ADD36RoundRect,0.225000X-0.250000X0.225000X-0.250000X-0.225000X0.250000X-0.225000X0.250000X0.225000X0*%
%ADD37R,0.800000X0.800000*%
%ADD38R,0.240000X0.900000*%
%ADD39R,0.900000X0.240000*%
%ADD40RoundRect,0.250000X-0.475000X0.337500X-0.475000X-0.337500X0.475000X-0.337500X0.475000X0.337500X0*%
%ADD41RoundRect,0.218750X-0.218750X-0.256250X0.218750X-0.256250X0.218750X0.256250X-0.218750X0.256250X0*%
%ADD42R,1.200000X1.400000*%
%ADD43RoundRect,0.250000X-0.337500X-0.475000X0.337500X-0.475000X0.337500X0.475000X-0.337500X0.475000X0*%
%ADD44RoundRect,0.150000X0.150000X-0.825000X0.150000X0.825000X-0.150000X0.825000X-0.150000X-0.825000X0*%
%ADD45RoundRect,0.250000X-0.275000X-0.700000X0.275000X-0.700000X0.275000X0.700000X-0.275000X0.700000X0*%
%ADD46RoundRect,0.250000X0.650000X-0.800000X0.650000X0.800000X-0.650000X0.800000X-0.650000X-0.800000X0*%
%ADD47R,1.300000X1.550000*%
%ADD48R,1.200000X0.700000*%
%ADD49R,0.800000X1.000000*%
%ADD50R,1.200000X1.000000*%
%ADD51R,2.800000X1.000000*%
%ADD52R,1.900000X1.300000*%
%ADD53RoundRect,0.100000X-0.712500X-0.100000X0.712500X-0.100000X0.712500X0.100000X-0.712500X0.100000X0*%
%ADD54RoundRect,0.250000X0.650000X-0.325000X0.650000X0.325000X-0.650000X0.325000X-0.650000X-0.325000X0*%
%ADD55R,0.300000X0.300000*%
%ADD56R,1.450000X0.600000*%
%ADD57R,1.450000X0.300000*%
%ADD58R,1.400000X1.200000*%
%ADD59RoundRect,0.250000X0.375000X0.625000X-0.375000X0.625000X-0.375000X-0.625000X0.375000X-0.625000X0*%
G04 APERTURE END LIST*
D10*
%TO.C,R43*%
X71112500Y-144862500D03*
X71112500Y-146512500D03*
%TD*%
%TO.C,R42*%
X76662500Y-144862500D03*
X76662500Y-146512500D03*
%TD*%
D11*
%TO.C,R33*%
X71112500Y-150012500D03*
X71112500Y-148362500D03*
%TD*%
D10*
%TO.C,R41*%
X76662500Y-148337500D03*
X76662500Y-149987500D03*
%TD*%
D12*
%TO.C,Q2*%
X72925000Y-145700000D03*
X74800000Y-144750000D03*
X74800000Y-146650000D03*
%TD*%
D13*
%TO.C,R37*%
X68675000Y-145826000D03*
X67025000Y-145826000D03*
%TD*%
%TO.C,R36*%
X68675000Y-147350000D03*
X67025000Y-147350000D03*
%TD*%
%TO.C,R35*%
X68675000Y-148874000D03*
X67025000Y-148874000D03*
%TD*%
D12*
%TO.C,Q1*%
X72937500Y-149187500D03*
X74812500Y-148237500D03*
X74812500Y-150137500D03*
%TD*%
D14*
%TO.C,C4*%
X118377000Y-177038000D03*
X116827000Y-177038000D03*
%TD*%
D15*
%TO.C,R27*%
X66357000Y-154178000D03*
X64707000Y-154178000D03*
%TD*%
D16*
%TO.C,U7*%
X96993000Y-155959500D03*
X96173000Y-155959500D03*
X96993000Y-156779500D03*
X96173000Y-156779500D03*
D17*
X97383000Y-154919500D03*
X96983000Y-154919500D03*
X96583000Y-154919500D03*
X96183000Y-154919500D03*
X95783000Y-154919500D03*
D18*
X95133000Y-155569500D03*
X95133000Y-155969500D03*
X95133000Y-156369500D03*
X95133000Y-156769500D03*
X95133000Y-157169500D03*
D17*
X95783000Y-157819500D03*
X96183000Y-157819500D03*
X96583000Y-157819500D03*
X96983000Y-157819500D03*
X97383000Y-157819500D03*
D18*
X98033000Y-157169500D03*
X98033000Y-156769500D03*
X98033000Y-156369500D03*
X98033000Y-155969500D03*
X98033000Y-155569500D03*
%TD*%
D10*
%TO.C,R38*%
X92650600Y-160925000D03*
X92650600Y-159275000D03*
%TD*%
D19*
%TO.C,D5*%
X78486000Y-166167000D03*
X78486000Y-164592000D03*
%TD*%
D20*
%TO.C,C14*%
X63300000Y-168800000D03*
X61750000Y-168800000D03*
%TD*%
D13*
%TO.C,R25*%
X61405000Y-152400000D03*
X63055000Y-152400000D03*
%TD*%
D15*
%TO.C,R24*%
X63055000Y-163068000D03*
X61405000Y-163068000D03*
%TD*%
D13*
%TO.C,R23*%
X61405000Y-150622000D03*
X63055000Y-150622000D03*
%TD*%
D21*
%TO.C,C31*%
X79502000Y-172106500D03*
X79502000Y-170031500D03*
%TD*%
D13*
%TO.C,R31*%
X92600000Y-151950000D03*
X94250000Y-151950000D03*
%TD*%
D15*
%TO.C,R18*%
X63055000Y-148844000D03*
X61405000Y-148844000D03*
%TD*%
D22*
%TO.C,U4*%
X69243500Y-154984000D03*
X69243500Y-155484000D03*
X69243500Y-155984000D03*
X69243500Y-156484000D03*
X69243500Y-156984000D03*
X69243500Y-157484000D03*
X69243500Y-157984000D03*
X69243500Y-158484000D03*
X69243500Y-158984000D03*
X69243500Y-159484000D03*
X69243500Y-159984000D03*
X69243500Y-160484000D03*
D23*
X70656000Y-161896500D03*
X71156000Y-161896500D03*
X71656000Y-161896500D03*
X72156000Y-161896500D03*
X72656000Y-161896500D03*
X73156000Y-161896500D03*
X73656000Y-161896500D03*
X74156000Y-161896500D03*
X74656000Y-161896500D03*
X75156000Y-161896500D03*
X75656000Y-161896500D03*
X76156000Y-161896500D03*
D22*
X77568500Y-160484000D03*
X77568500Y-159984000D03*
X77568500Y-159484000D03*
X77568500Y-158984000D03*
X77568500Y-158484000D03*
X77568500Y-157984000D03*
X77568500Y-157484000D03*
X77568500Y-156984000D03*
X77568500Y-156484000D03*
X77568500Y-155984000D03*
X77568500Y-155484000D03*
X77568500Y-154984000D03*
D23*
X76156000Y-153571500D03*
X75656000Y-153571500D03*
X75156000Y-153571500D03*
X74656000Y-153571500D03*
X74156000Y-153571500D03*
X73656000Y-153571500D03*
X73156000Y-153571500D03*
X72656000Y-153571500D03*
X72156000Y-153571500D03*
X71656000Y-153571500D03*
X71156000Y-153571500D03*
X70656000Y-153571500D03*
%TD*%
D19*
%TO.C,D3*%
X82042000Y-166141500D03*
X82042000Y-164566500D03*
%TD*%
D20*
%TO.C,C3*%
X124473000Y-177038000D03*
X122923000Y-177038000D03*
%TD*%
D14*
%TO.C,C11*%
X64075000Y-177800000D03*
X65625000Y-177800000D03*
%TD*%
D24*
%TO.C,U8*%
X54487500Y-171237500D03*
X55437500Y-171237500D03*
X56387500Y-171237500D03*
X56387500Y-168962500D03*
X54487500Y-168962500D03*
%TD*%
D25*
%TO.C,C2*%
X104000000Y-173275000D03*
X104000000Y-171725000D03*
%TD*%
D10*
%TO.C,R9*%
X62300000Y-145350000D03*
X62300000Y-143700000D03*
%TD*%
D14*
%TO.C,C9*%
X115150500Y-150622000D03*
X116700500Y-150622000D03*
%TD*%
D20*
%TO.C,C20*%
X100350000Y-153250000D03*
X98800000Y-153250000D03*
%TD*%
D13*
%TO.C,R12*%
X64025000Y-179300000D03*
X65675000Y-179300000D03*
%TD*%
D26*
%TO.C,U3*%
X95750000Y-153562500D03*
D27*
X96250000Y-153562500D03*
X96750000Y-153562500D03*
D28*
X97250000Y-153562500D03*
D29*
X97412500Y-152900000D03*
D30*
X97412500Y-152400000D03*
D31*
X97412500Y-151900000D03*
D32*
X97250000Y-151237500D03*
D27*
X96750000Y-151237500D03*
X96250000Y-151237500D03*
D33*
X95750000Y-151237500D03*
D34*
X95587500Y-151900000D03*
D30*
X95587500Y-152400000D03*
D35*
X95587500Y-152900000D03*
%TD*%
D14*
%TO.C,C1*%
X102476000Y-170214000D03*
X104026000Y-170214000D03*
%TD*%
D15*
%TO.C,R21*%
X66357000Y-161290000D03*
X64707000Y-161290000D03*
%TD*%
D36*
%TO.C,C22*%
X74930000Y-164579000D03*
X74930000Y-166129000D03*
%TD*%
D13*
%TO.C,R6*%
X92600000Y-150500000D03*
X94250000Y-150500000D03*
%TD*%
D37*
%TO.C,U6*%
X83312000Y-148524000D03*
X83312000Y-147574000D03*
X83312000Y-146624000D03*
D38*
X83562000Y-149874000D03*
D39*
X84612000Y-149324000D03*
X84612000Y-148824000D03*
X84612000Y-148324000D03*
X84612000Y-147824000D03*
X84612000Y-147324000D03*
X84612000Y-146824000D03*
X84612000Y-146324000D03*
X84612000Y-145824000D03*
D38*
X83562000Y-145274000D03*
X83062000Y-145274000D03*
D39*
X82012000Y-145824000D03*
X82012000Y-146324000D03*
X82012000Y-146824000D03*
X82012000Y-147324000D03*
X82012000Y-147824000D03*
X82012000Y-148324000D03*
X82012000Y-148824000D03*
X82012000Y-149324000D03*
D38*
X83062000Y-149874000D03*
%TD*%
D14*
%TO.C,C19*%
X61450000Y-164650000D03*
X63000000Y-164650000D03*
%TD*%
D40*
%TO.C,C38*%
X59850000Y-172000000D03*
X59850000Y-174075000D03*
%TD*%
D15*
%TO.C,R20*%
X63055000Y-166200000D03*
X61405000Y-166200000D03*
%TD*%
D36*
%TO.C,C45*%
X93100000Y-140250000D03*
X93100000Y-141800000D03*
%TD*%
D15*
%TO.C,R15*%
X102475000Y-147625000D03*
X100825000Y-147625000D03*
%TD*%
D21*
%TO.C,C13*%
X52600000Y-171025000D03*
X52600000Y-168950000D03*
%TD*%
D36*
%TO.C,C30*%
X85125000Y-158025000D03*
X85125000Y-159575000D03*
%TD*%
D14*
%TO.C,C27*%
X88125000Y-164338000D03*
X89675000Y-164338000D03*
%TD*%
D41*
%TO.C,FB1*%
X115138000Y-153670000D03*
X116713000Y-153670000D03*
%TD*%
D15*
%TO.C,R10*%
X51117000Y-131572000D03*
X49467000Y-131572000D03*
%TD*%
D11*
%TO.C,R4*%
X52350000Y-172625000D03*
X52350000Y-174275000D03*
%TD*%
D21*
%TO.C,C35*%
X82042000Y-172106500D03*
X82042000Y-170031500D03*
%TD*%
D36*
%TO.C,C37*%
X58050000Y-171850000D03*
X58050000Y-173400000D03*
%TD*%
D10*
%TO.C,R34*%
X80010000Y-158813000D03*
X80010000Y-157163000D03*
%TD*%
D14*
%TO.C,C29*%
X88125000Y-162814000D03*
X89675000Y-162814000D03*
%TD*%
D42*
%TO.C,Y2*%
X83474511Y-159266511D03*
X83474511Y-157066511D03*
X81774511Y-157066511D03*
X81774511Y-159266511D03*
%TD*%
D13*
%TO.C,R32*%
X92600000Y-153450000D03*
X94250000Y-153450000D03*
%TD*%
D36*
%TO.C,C21*%
X73152000Y-164592000D03*
X73152000Y-166142000D03*
%TD*%
D20*
%TO.C,C16*%
X63005000Y-157734000D03*
X61455000Y-157734000D03*
%TD*%
%TO.C,C28*%
X83474511Y-155202511D03*
X81924511Y-155202511D03*
%TD*%
D10*
%TO.C,R40*%
X95749400Y-160925000D03*
X95749400Y-159275000D03*
%TD*%
D36*
%TO.C,C40*%
X97710000Y-159325000D03*
X97710000Y-160875000D03*
%TD*%
D15*
%TO.C,R30*%
X66357000Y-159512000D03*
X64707000Y-159512000D03*
%TD*%
D11*
%TO.C,R1*%
X102476000Y-171675000D03*
X102476000Y-173325000D03*
%TD*%
%TO.C,R7*%
X58050000Y-168725000D03*
X58050000Y-170375000D03*
%TD*%
D14*
%TO.C,C34*%
X88125000Y-161290000D03*
X89675000Y-161290000D03*
%TD*%
D25*
%TO.C,C24*%
X77470000Y-171831000D03*
X77470000Y-170281000D03*
%TD*%
D15*
%TO.C,R14*%
X102450000Y-146075000D03*
X100800000Y-146075000D03*
%TD*%
D43*
%TO.C,C36*%
X87475000Y-166100000D03*
X89550000Y-166100000D03*
%TD*%
D15*
%TO.C,R28*%
X66357000Y-155956000D03*
X64707000Y-155956000D03*
%TD*%
D20*
%TO.C,C6*%
X111887000Y-160020000D03*
X110337000Y-160020000D03*
%TD*%
D44*
%TO.C,U2*%
X61805000Y-175775000D03*
X63075000Y-175775000D03*
X64345000Y-175775000D03*
X65615000Y-175775000D03*
X66885000Y-175775000D03*
X68155000Y-175775000D03*
X69425000Y-175775000D03*
X70695000Y-175775000D03*
X70695000Y-170825000D03*
X69425000Y-170825000D03*
X68155000Y-170825000D03*
X66885000Y-170825000D03*
X65615000Y-170825000D03*
X64345000Y-170825000D03*
X63075000Y-170825000D03*
X61805000Y-170825000D03*
%TD*%
D15*
%TO.C,R26*%
X63055000Y-161290000D03*
X61405000Y-161290000D03*
%TD*%
D11*
%TO.C,R8*%
X59600000Y-168725000D03*
X59600000Y-170375000D03*
%TD*%
D15*
%TO.C,R22*%
X63055000Y-155956000D03*
X61405000Y-155956000D03*
%TD*%
D45*
%TO.C,L1*%
X73475000Y-173850000D03*
X76625000Y-173850000D03*
%TD*%
D11*
%TO.C,R19*%
X80264000Y-164529000D03*
X80264000Y-166179000D03*
%TD*%
D46*
%TO.C,Y3*%
X97400000Y-143725000D03*
X97400000Y-140825000D03*
X95100000Y-140825000D03*
X95100000Y-143725000D03*
%TD*%
D11*
%TO.C,R13*%
X66900000Y-139425000D03*
X66900000Y-141075000D03*
%TD*%
D10*
%TO.C,R5*%
X52324000Y-179133000D03*
X52324000Y-177483000D03*
%TD*%
D20*
%TO.C,C10*%
X66375000Y-168800000D03*
X64825000Y-168800000D03*
%TD*%
D14*
%TO.C,C32*%
X85077000Y-162814000D03*
X86627000Y-162814000D03*
%TD*%
D47*
%TO.C,SW1*%
X95850000Y-174630000D03*
X95850000Y-166670000D03*
X100350000Y-174630000D03*
X100350000Y-166670000D03*
%TD*%
D14*
%TO.C,C26*%
X82029000Y-161290000D03*
X83579000Y-161290000D03*
%TD*%
D20*
%TO.C,C7*%
X111900000Y-161544000D03*
X110350000Y-161544000D03*
%TD*%
D15*
%TO.C,R3*%
X121475000Y-177038000D03*
X119825000Y-177038000D03*
%TD*%
D36*
%TO.C,C41*%
X99250000Y-159325000D03*
X99250000Y-160875000D03*
%TD*%
D48*
%TO.C,J11*%
X59795000Y-142983000D03*
X59795000Y-141883000D03*
X59795000Y-140783000D03*
X59795000Y-139683000D03*
X59795000Y-138583000D03*
X59795000Y-137483000D03*
X59795000Y-136383000D03*
X59795000Y-135283000D03*
X59795000Y-134333000D03*
D49*
X49295000Y-133383000D03*
D50*
X55495000Y-133383000D03*
D51*
X45145000Y-133383000D03*
D50*
X59795000Y-144533000D03*
D52*
X44695000Y-146883000D03*
%TD*%
D25*
%TO.C,C12*%
X62300000Y-140975000D03*
X62300000Y-139425000D03*
%TD*%
D36*
%TO.C,C44*%
X99450000Y-140200000D03*
X99450000Y-141750000D03*
%TD*%
D11*
%TO.C,R17*%
X76708000Y-164529000D03*
X76708000Y-166179000D03*
%TD*%
D14*
%TO.C,C43*%
X100850000Y-141415000D03*
X102400000Y-141415000D03*
%TD*%
%TO.C,C39*%
X81925000Y-151400000D03*
X83475000Y-151400000D03*
%TD*%
D53*
%TO.C,U9*%
X94337500Y-145950000D03*
X94337500Y-146600000D03*
X94337500Y-147250000D03*
X94337500Y-147900000D03*
X98562500Y-147900000D03*
X98562500Y-147250000D03*
X98562500Y-146600000D03*
X98562500Y-145950000D03*
%TD*%
D19*
%TO.C,FB2*%
X71287500Y-166167000D03*
X71287500Y-164592000D03*
%TD*%
D10*
%TO.C,R39*%
X94200000Y-160925000D03*
X94200000Y-159275000D03*
%TD*%
D25*
%TO.C,C23*%
X72390000Y-171844000D03*
X72390000Y-170294000D03*
%TD*%
D14*
%TO.C,C8*%
X115150500Y-152146000D03*
X116700500Y-152146000D03*
%TD*%
%TO.C,C17*%
X61455000Y-154178000D03*
X63005000Y-154178000D03*
%TD*%
D21*
%TO.C,C33*%
X84533000Y-172106500D03*
X84533000Y-170031500D03*
%TD*%
D11*
%TO.C,R2*%
X104000000Y-167167000D03*
X104000000Y-168817000D03*
%TD*%
D54*
%TO.C,C5*%
X102610000Y-162330000D03*
X102610000Y-159380000D03*
%TD*%
D10*
%TO.C,R11*%
X60100000Y-177325000D03*
X60100000Y-175675000D03*
%TD*%
D55*
%TO.C,U5*%
X75180000Y-171315000D03*
X75180000Y-170815000D03*
X75180000Y-170315000D03*
X74680000Y-171315000D03*
X74680000Y-170815000D03*
X74680000Y-170315000D03*
%TD*%
D22*
%TO.C,U1*%
X114892500Y-157195000D03*
X114892500Y-157695000D03*
X114892500Y-158195000D03*
X114892500Y-158695000D03*
X114892500Y-159195000D03*
X114892500Y-159695000D03*
X114892500Y-160195000D03*
X114892500Y-160695000D03*
X114892500Y-161195000D03*
X114892500Y-161695000D03*
X114892500Y-162195000D03*
X114892500Y-162695000D03*
X114892500Y-163195000D03*
X114892500Y-163695000D03*
X114892500Y-164195000D03*
X114892500Y-164695000D03*
X114892500Y-165195000D03*
X114892500Y-165695000D03*
X114892500Y-166195000D03*
X114892500Y-166695000D03*
X114892500Y-167195000D03*
X114892500Y-167695000D03*
X114892500Y-168195000D03*
X114892500Y-168695000D03*
X114892500Y-169195000D03*
D23*
X116555000Y-170857500D03*
X117055000Y-170857500D03*
X117555000Y-170857500D03*
X118055000Y-170857500D03*
X118555000Y-170857500D03*
X119055000Y-170857500D03*
X119555000Y-170857500D03*
X120055000Y-170857500D03*
X120555000Y-170857500D03*
X121055000Y-170857500D03*
X121555000Y-170857500D03*
X122055000Y-170857500D03*
X122555000Y-170857500D03*
X123055000Y-170857500D03*
X123555000Y-170857500D03*
X124055000Y-170857500D03*
X124555000Y-170857500D03*
X125055000Y-170857500D03*
X125555000Y-170857500D03*
X126055000Y-170857500D03*
X126555000Y-170857500D03*
X127055000Y-170857500D03*
X127555000Y-170857500D03*
X128055000Y-170857500D03*
X128555000Y-170857500D03*
D22*
X130217500Y-169195000D03*
X130217500Y-168695000D03*
X130217500Y-168195000D03*
X130217500Y-167695000D03*
X130217500Y-167195000D03*
X130217500Y-166695000D03*
X130217500Y-166195000D03*
X130217500Y-165695000D03*
X130217500Y-165195000D03*
X130217500Y-164695000D03*
X130217500Y-164195000D03*
X130217500Y-163695000D03*
X130217500Y-163195000D03*
X130217500Y-162695000D03*
X130217500Y-162195000D03*
X130217500Y-161695000D03*
X130217500Y-161195000D03*
X130217500Y-160695000D03*
X130217500Y-160195000D03*
X130217500Y-159695000D03*
X130217500Y-159195000D03*
X130217500Y-158695000D03*
X130217500Y-158195000D03*
X130217500Y-157695000D03*
X130217500Y-157195000D03*
D23*
X128555000Y-155532500D03*
X128055000Y-155532500D03*
X127555000Y-155532500D03*
X127055000Y-155532500D03*
X126555000Y-155532500D03*
X126055000Y-155532500D03*
X125555000Y-155532500D03*
X125055000Y-155532500D03*
X124555000Y-155532500D03*
X124055000Y-155532500D03*
X123555000Y-155532500D03*
X123055000Y-155532500D03*
X122555000Y-155532500D03*
X122055000Y-155532500D03*
X121555000Y-155532500D03*
X121055000Y-155532500D03*
X120555000Y-155532500D03*
X120055000Y-155532500D03*
X119555000Y-155532500D03*
X119055000Y-155532500D03*
X118555000Y-155532500D03*
X118055000Y-155532500D03*
X117555000Y-155532500D03*
X117055000Y-155532500D03*
X116555000Y-155532500D03*
%TD*%
D14*
%TO.C,C25*%
X85090000Y-161290000D03*
X86640000Y-161290000D03*
%TD*%
D56*
%TO.C,J9*%
X50221000Y-172518000D03*
X50221000Y-173318000D03*
D57*
X50221000Y-174518000D03*
X50221000Y-175518000D03*
X50221000Y-176018000D03*
X50221000Y-177018000D03*
D56*
X50221000Y-178218000D03*
X50221000Y-179018000D03*
X50221000Y-179018000D03*
X50221000Y-178218000D03*
D57*
X50221000Y-177518000D03*
X50221000Y-176518000D03*
X50221000Y-175018000D03*
X50221000Y-174018000D03*
D56*
X50221000Y-173318000D03*
X50221000Y-172518000D03*
%TD*%
D58*
%TO.C,Y1*%
X121242000Y-173648000D03*
X119042000Y-173648000D03*
X119042000Y-175348000D03*
X121242000Y-175348000D03*
%TD*%
D59*
%TO.C,F1*%
X50550000Y-168950000D03*
X47750000Y-168950000D03*
%TD*%
D20*
%TO.C,C18*%
X100350000Y-151726000D03*
X98800000Y-151726000D03*
%TD*%
%TO.C,C15*%
X63005000Y-159512000D03*
X61455000Y-159512000D03*
%TD*%
D14*
%TO.C,C42*%
X100850000Y-142975000D03*
X102400000Y-142975000D03*
%TD*%
D15*
%TO.C,R16*%
X102450000Y-144525000D03*
X100800000Y-144525000D03*
%TD*%
%TO.C,R29*%
X66357000Y-157734000D03*
X64707000Y-157734000D03*
%TD*%
M02*
