%TF.GenerationSoftware,KiCad,Pcbnew,9.0.2*%
%TF.CreationDate,2025-05-21T22:19:14-04:00*%
%TF.ProjectId,ArduinoMega_Ethernet,41726475-696e-46f4-9d65-67615f457468,rev?*%
%TF.SameCoordinates,Original*%
%TF.FileFunction,Soldermask,Top*%
%TF.FilePolarity,Negative*%
%FSLAX46Y46*%
G04 Gerber Fmt 4.6, Leading zero omitted, Abs format (unit mm)*
G04 Created by KiCad (PCBNEW 9.0.2) date 2025-05-21 22:19:14*
%MOMM*%
%LPD*%
G01*
G04 APERTURE LIST*
G04 Aperture macros list*
%AMRoundRect*
0 Rectangle with rounded corners*
0 $1 Rounding radius*
0 $2 $3 $4 $5 $6 $7 $8 $9 X,Y pos of 4 corners*
0 Add a 4 corners polygon primitive as box body*
4,1,4,$2,$3,$4,$5,$6,$7,$8,$9,$2,$3,0*
0 Add four circle primitives for the rounded corners*
1,1,$1+$1,$2,$3*
1,1,$1+$1,$4,$5*
1,1,$1+$1,$6,$7*
1,1,$1+$1,$8,$9*
0 Add four rect primitives between the rounded corners*
20,1,$1+$1,$2,$3,$4,$5,0*
20,1,$1+$1,$4,$5,$6,$7,0*
20,1,$1+$1,$6,$7,$8,$9,0*
20,1,$1+$1,$8,$9,$2,$3,0*%
%AMFreePoly0*
4,1,19,0.079643,0.182453,0.084467,0.178033,0.290533,-0.028033,0.312215,-0.074529,0.312500,-0.081066,0.312500,-0.125000,0.294953,-0.173209,0.250524,-0.198861,0.237500,-0.200000,-0.237500,-0.200000,-0.285709,-0.182453,-0.311361,-0.138024,-0.312500,-0.125000,-0.312500,0.125000,-0.294953,0.173209,-0.250524,0.198861,-0.237500,0.200000,0.031434,0.200000,0.079643,0.182453,0.079643,0.182453,
$1*%
%AMFreePoly1*
4,1,19,0.285709,0.182453,0.311361,0.138024,0.312500,0.125000,0.312500,0.081066,0.294953,0.032857,0.290533,0.028033,0.084467,-0.178033,0.037971,-0.199715,0.031434,-0.200000,-0.237500,-0.200000,-0.285709,-0.182453,-0.311361,-0.138024,-0.312500,-0.125000,-0.312500,0.125000,-0.294953,0.173209,-0.250524,0.198861,-0.237500,0.200000,0.237500,0.200000,0.285709,0.182453,0.285709,0.182453,
$1*%
%AMFreePoly2*
4,1,19,0.173209,0.294953,0.198861,0.250524,0.200000,0.237500,0.200000,-0.237500,0.182453,-0.285709,0.138024,-0.311361,0.125000,-0.312500,-0.125000,-0.312500,-0.173209,-0.294953,-0.198861,-0.250524,-0.200000,-0.237500,-0.200000,0.031434,-0.182453,0.079643,-0.178033,0.084467,0.028033,0.290533,0.074529,0.312215,0.081066,0.312500,0.125000,0.312500,0.173209,0.294953,0.173209,0.294953,
$1*%
%AMFreePoly3*
4,1,19,-0.032857,0.294953,-0.028033,0.290533,0.178033,0.084467,0.199715,0.037971,0.200000,0.031434,0.200000,-0.237500,0.182453,-0.285709,0.138024,-0.311361,0.125000,-0.312500,-0.125000,-0.312500,-0.173209,-0.294953,-0.198861,-0.250524,-0.200000,-0.237500,-0.200000,0.237500,-0.182453,0.285709,-0.138024,0.311361,-0.125000,0.312500,-0.081066,0.312500,-0.032857,0.294953,-0.032857,0.294953,
$1*%
%AMFreePoly4*
4,1,19,0.285709,0.182453,0.311361,0.138024,0.312500,0.125000,0.312500,-0.125000,0.294953,-0.173209,0.250524,-0.198861,0.237500,-0.200000,-0.031434,-0.200000,-0.079643,-0.182453,-0.084467,-0.178033,-0.290533,0.028033,-0.312215,0.074529,-0.312500,0.081066,-0.312500,0.125000,-0.294953,0.173209,-0.250524,0.198861,-0.237500,0.200000,0.237500,0.200000,0.285709,0.182453,0.285709,0.182453,
$1*%
%AMFreePoly5*
4,1,19,0.285709,0.182453,0.311361,0.138024,0.312500,0.125000,0.312500,-0.125000,0.294953,-0.173209,0.250524,-0.198861,0.237500,-0.200000,-0.237500,-0.200000,-0.285709,-0.182453,-0.311361,-0.138024,-0.312500,-0.125000,-0.312500,-0.081066,-0.294953,-0.032857,-0.290533,-0.028033,-0.084467,0.178033,-0.037971,0.199715,-0.031434,0.200000,0.237500,0.200000,0.285709,0.182453,0.285709,0.182453,
$1*%
%AMFreePoly6*
4,1,19,0.173209,0.294953,0.198861,0.250524,0.200000,0.237500,0.200000,-0.031434,0.182453,-0.079643,0.178033,-0.084467,-0.028033,-0.290533,-0.074529,-0.312215,-0.081066,-0.312500,-0.125000,-0.312500,-0.173209,-0.294953,-0.198861,-0.250524,-0.200000,-0.237500,-0.200000,0.237500,-0.182453,0.285709,-0.138024,0.311361,-0.125000,0.312500,0.125000,0.312500,0.173209,0.294953,0.173209,0.294953,
$1*%
%AMFreePoly7*
4,1,19,0.173209,0.294953,0.198861,0.250524,0.200000,0.237500,0.200000,-0.237500,0.182453,-0.285709,0.138024,-0.311361,0.125000,-0.312500,0.081066,-0.312500,0.032857,-0.294953,0.028033,-0.290533,-0.178033,-0.084467,-0.199715,-0.037971,-0.200000,-0.031434,-0.200000,0.237500,-0.182453,0.285709,-0.138024,0.311361,-0.125000,0.312500,0.125000,0.312500,0.173209,0.294953,0.173209,0.294953,
$1*%
G04 Aperture macros list end*
%ADD10RoundRect,0.200000X-0.800000X0.200000X-0.800000X-0.200000X0.800000X-0.200000X0.800000X0.200000X0*%
%ADD11RoundRect,0.225000X-0.225000X-0.250000X0.225000X-0.250000X0.225000X0.250000X-0.225000X0.250000X0*%
%ADD12C,3.200000*%
%ADD13C,1.562000*%
%ADD14RoundRect,0.102000X0.679000X-0.679000X0.679000X0.679000X-0.679000X0.679000X-0.679000X-0.679000X0*%
%ADD15RoundRect,0.225000X0.225000X0.250000X-0.225000X0.250000X-0.225000X-0.250000X0.225000X-0.250000X0*%
%ADD16RoundRect,0.250001X-0.462499X-1.074999X0.462499X-1.074999X0.462499X1.074999X-0.462499X1.074999X0*%
%ADD17RoundRect,0.200000X-0.200000X-0.275000X0.200000X-0.275000X0.200000X0.275000X-0.200000X0.275000X0*%
%ADD18RoundRect,0.150000X-0.512500X-0.150000X0.512500X-0.150000X0.512500X0.150000X-0.512500X0.150000X0*%
%ADD19RoundRect,0.250000X-0.412500X-1.100000X0.412500X-1.100000X0.412500X1.100000X-0.412500X1.100000X0*%
%ADD20RoundRect,0.250000X0.475000X-0.337500X0.475000X0.337500X-0.475000X0.337500X-0.475000X-0.337500X0*%
%ADD21RoundRect,0.200000X0.200000X0.275000X-0.200000X0.275000X-0.200000X-0.275000X0.200000X-0.275000X0*%
%ADD22RoundRect,0.050000X-0.050000X0.375000X-0.050000X-0.375000X0.050000X-0.375000X0.050000X0.375000X0*%
%ADD23RoundRect,0.050000X-0.375000X0.050000X-0.375000X-0.050000X0.375000X-0.050000X0.375000X0.050000X0*%
%ADD24R,1.650000X1.650000*%
%ADD25RoundRect,0.200000X0.275000X-0.200000X0.275000X0.200000X-0.275000X0.200000X-0.275000X-0.200000X0*%
%ADD26RoundRect,0.218750X0.256250X-0.218750X0.256250X0.218750X-0.256250X0.218750X-0.256250X-0.218750X0*%
%ADD27RoundRect,0.100000X-0.637500X-0.100000X0.637500X-0.100000X0.637500X0.100000X-0.637500X0.100000X0*%
%ADD28R,1.700000X1.700000*%
%ADD29C,1.700000*%
%ADD30R,1.000000X1.500000*%
%ADD31RoundRect,0.075000X-0.662500X-0.075000X0.662500X-0.075000X0.662500X0.075000X-0.662500X0.075000X0*%
%ADD32RoundRect,0.075000X-0.075000X-0.662500X0.075000X-0.662500X0.075000X0.662500X-0.075000X0.662500X0*%
%ADD33RoundRect,0.250000X0.625000X-0.350000X0.625000X0.350000X-0.625000X0.350000X-0.625000X-0.350000X0*%
%ADD34O,1.750000X1.200000*%
%ADD35RoundRect,0.150000X0.150000X-0.512500X0.150000X0.512500X-0.150000X0.512500X-0.150000X-0.512500X0*%
%ADD36FreePoly0,90.000000*%
%ADD37RoundRect,0.100000X0.100000X-0.212500X0.100000X0.212500X-0.100000X0.212500X-0.100000X-0.212500X0*%
%ADD38FreePoly1,90.000000*%
%ADD39FreePoly2,90.000000*%
%ADD40RoundRect,0.100000X0.212500X-0.100000X0.212500X0.100000X-0.212500X0.100000X-0.212500X-0.100000X0*%
%ADD41FreePoly3,90.000000*%
%ADD42FreePoly4,90.000000*%
%ADD43FreePoly5,90.000000*%
%ADD44FreePoly6,90.000000*%
%ADD45FreePoly7,90.000000*%
%ADD46RoundRect,0.225000X0.250000X-0.225000X0.250000X0.225000X-0.250000X0.225000X-0.250000X-0.225000X0*%
%ADD47RoundRect,0.225000X-0.250000X0.225000X-0.250000X-0.225000X0.250000X-0.225000X0.250000X0.225000X0*%
%ADD48RoundRect,0.250000X-0.475000X0.337500X-0.475000X-0.337500X0.475000X-0.337500X0.475000X0.337500X0*%
%ADD49RoundRect,0.218750X-0.218750X-0.256250X0.218750X-0.256250X0.218750X0.256250X-0.218750X0.256250X0*%
%ADD50RoundRect,0.200000X-0.275000X0.200000X-0.275000X-0.200000X0.275000X-0.200000X0.275000X0.200000X0*%
%ADD51R,1.200000X1.400000*%
%ADD52RoundRect,0.250000X-0.337500X-0.475000X0.337500X-0.475000X0.337500X0.475000X-0.337500X0.475000X0*%
%ADD53C,3.250000*%
%ADD54C,2.600000*%
%ADD55C,1.890000*%
%ADD56R,1.900000X1.900000*%
%ADD57C,1.900000*%
%ADD58RoundRect,0.150000X0.150000X-0.825000X0.150000X0.825000X-0.150000X0.825000X-0.150000X-0.825000X0*%
%ADD59RoundRect,0.250000X0.650000X-0.800000X0.650000X0.800000X-0.650000X0.800000X-0.650000X-0.800000X0*%
%ADD60RoundRect,0.250000X0.337500X0.475000X-0.337500X0.475000X-0.337500X-0.475000X0.337500X-0.475000X0*%
%ADD61R,1.200000X0.700000*%
%ADD62R,0.800000X1.000000*%
%ADD63R,1.200000X1.000000*%
%ADD64R,2.800000X1.000000*%
%ADD65R,1.900000X1.300000*%
%ADD66RoundRect,0.100000X-0.712500X-0.100000X0.712500X-0.100000X0.712500X0.100000X-0.712500X0.100000X0*%
%ADD67C,0.650000*%
%ADD68R,1.450000X0.600000*%
%ADD69R,1.450000X0.300000*%
%ADD70O,2.100000X1.000000*%
%ADD71O,1.600000X1.000000*%
%ADD72R,1.400000X1.200000*%
%ADD73RoundRect,0.250000X0.375000X0.625000X-0.375000X0.625000X-0.375000X-0.625000X0.375000X-0.625000X0*%
G04 APERTURE END LIST*
%TO.C,JP2*%
G36*
X67175000Y-150532500D02*
G01*
X68775000Y-150532500D01*
X68775000Y-152032500D01*
X67175000Y-152032500D01*
X67175000Y-150532500D01*
G37*
%TO.C,JP1*%
G36*
X67175000Y-147982500D02*
G01*
X68775000Y-147982500D01*
X68775000Y-149482500D01*
X67175000Y-149482500D01*
X67175000Y-147982500D01*
G37*
%TO.C,JP3*%
G36*
X67175000Y-145425000D02*
G01*
X68775000Y-145425000D01*
X68775000Y-146925000D01*
X67175000Y-146925000D01*
X67175000Y-145425000D01*
G37*
%TD*%
D10*
%TO.C,SW1*%
X102375000Y-163600000D03*
X102375000Y-167800000D03*
%TD*%
D11*
%TO.C,C11*%
X65625000Y-177875000D03*
X64075000Y-177875000D03*
%TD*%
D12*
%TO.C,A1*%
X57125000Y-179085000D03*
X139675000Y-179085000D03*
X109195000Y-174005000D03*
X109195000Y-146065000D03*
X58395000Y-130825000D03*
X133325000Y-130825000D03*
D13*
X106655000Y-130825000D03*
X104115000Y-130825000D03*
X101575000Y-130825000D03*
X99035000Y-130825000D03*
X78715000Y-179085000D03*
X96495000Y-130825000D03*
X93955000Y-130825000D03*
X81255000Y-179085000D03*
X137135000Y-130825000D03*
X139675000Y-130825000D03*
X91415000Y-130825000D03*
X88875000Y-130825000D03*
X84811000Y-130825000D03*
X82271000Y-130825000D03*
X79731000Y-130825000D03*
X77191000Y-130825000D03*
X74651000Y-130825000D03*
X72111000Y-130825000D03*
X111735000Y-130825000D03*
X114275000Y-130825000D03*
X116815000Y-130825000D03*
X119355000Y-130825000D03*
X121895000Y-130825000D03*
X124435000Y-130825000D03*
X126975000Y-130825000D03*
X129515000Y-130825000D03*
X137135000Y-133365000D03*
X139675000Y-133365000D03*
X137135000Y-135905000D03*
X139675000Y-135905000D03*
X137135000Y-138445000D03*
X139675000Y-138445000D03*
X137135000Y-140985000D03*
X139675000Y-140985000D03*
X137135000Y-143525000D03*
X139675000Y-143525000D03*
X137135000Y-146065000D03*
X139675000Y-146065000D03*
X137135000Y-148605000D03*
X139675000Y-148605000D03*
X137135000Y-151145000D03*
X139675000Y-151145000D03*
X137135000Y-153685000D03*
X139675000Y-153685000D03*
X137135000Y-156225000D03*
X139675000Y-156225000D03*
X137135000Y-158765000D03*
X139675000Y-158765000D03*
X137135000Y-161305000D03*
X139675000Y-161305000D03*
X137135000Y-163845000D03*
X139675000Y-163845000D03*
X137135000Y-166385000D03*
X139675000Y-166385000D03*
X137135000Y-168925000D03*
X139675000Y-168925000D03*
X137135000Y-171465000D03*
X139675000Y-171465000D03*
X93955000Y-179085000D03*
X96495000Y-179085000D03*
X99035000Y-179085000D03*
X101575000Y-179085000D03*
X104115000Y-179085000D03*
X106655000Y-179085000D03*
X109195000Y-179085000D03*
X111735000Y-179085000D03*
X116815000Y-179085000D03*
X119355000Y-179085000D03*
X121895000Y-179085000D03*
X124435000Y-179085000D03*
X126975000Y-179085000D03*
X129515000Y-179085000D03*
X131801000Y-179085000D03*
X134341000Y-179085000D03*
X67031000Y-130825000D03*
X83795000Y-179085000D03*
X86335000Y-179085000D03*
X69571000Y-130825000D03*
X137135000Y-174005000D03*
X139675000Y-174005000D03*
X73635000Y-179085000D03*
D14*
X71095000Y-179085000D03*
D13*
X76175000Y-179085000D03*
X61951000Y-130825000D03*
X64491000Y-130825000D03*
X88875000Y-179085000D03*
%TD*%
D15*
%TO.C,C24*%
X77175000Y-169350000D03*
X78725000Y-169350000D03*
%TD*%
D16*
%TO.C,L1*%
X81687500Y-171825000D03*
X78712500Y-171825000D03*
%TD*%
D15*
%TO.C,C2*%
X108450000Y-169825000D03*
X110000000Y-169825000D03*
%TD*%
D17*
%TO.C,R1*%
X110050000Y-171349000D03*
X108400000Y-171349000D03*
%TD*%
D18*
%TO.C,U5*%
X90962500Y-171212500D03*
X90962500Y-172162500D03*
X90962500Y-173112500D03*
X93237500Y-173112500D03*
X93237500Y-172162500D03*
X93237500Y-171212500D03*
%TD*%
D16*
%TO.C,L2*%
X95212500Y-172175000D03*
X98187500Y-172175000D03*
%TD*%
D19*
%TO.C,C49*%
X100162500Y-173875000D03*
X103287500Y-173875000D03*
%TD*%
%TO.C,C48*%
X100162500Y-170575000D03*
X103287500Y-170575000D03*
%TD*%
D15*
%TO.C,C47*%
X95200000Y-169675000D03*
X93650000Y-169675000D03*
%TD*%
D20*
%TO.C,C35*%
X88925000Y-173312500D03*
X88925000Y-171237500D03*
%TD*%
D21*
%TO.C,R27*%
X66357000Y-154178000D03*
X64707000Y-154178000D03*
%TD*%
D22*
%TO.C,U7*%
X97383000Y-154919500D03*
X96983000Y-154919500D03*
X96583000Y-154919500D03*
X96183000Y-154919500D03*
X95783000Y-154919500D03*
D23*
X95133000Y-155569500D03*
X95133000Y-155969500D03*
X95133000Y-156369500D03*
X95133000Y-156769500D03*
X95133000Y-157169500D03*
D22*
X95783000Y-157819500D03*
X96183000Y-157819500D03*
X96583000Y-157819500D03*
X96983000Y-157819500D03*
X97383000Y-157819500D03*
D23*
X98033000Y-157169500D03*
X98033000Y-156769500D03*
X98033000Y-156369500D03*
X98033000Y-155969500D03*
X98033000Y-155569500D03*
D24*
X96583000Y-156369500D03*
%TD*%
D25*
%TO.C,R38*%
X92650600Y-160925000D03*
X92650600Y-159275000D03*
%TD*%
D26*
%TO.C,D5*%
X78486000Y-166167000D03*
X78486000Y-164592000D03*
%TD*%
D27*
%TO.C,U10*%
X72300000Y-143800000D03*
X72300000Y-144450000D03*
X72300000Y-145100000D03*
X72300000Y-145750000D03*
X72300000Y-146400000D03*
X72300000Y-147050000D03*
X72300000Y-147700000D03*
X72300000Y-148350000D03*
X72300000Y-149000000D03*
X72300000Y-149650000D03*
X78025000Y-149650000D03*
X78025000Y-149000000D03*
X78025000Y-148350000D03*
X78025000Y-147700000D03*
X78025000Y-147050000D03*
X78025000Y-146400000D03*
X78025000Y-145750000D03*
X78025000Y-145100000D03*
X78025000Y-144450000D03*
X78025000Y-143800000D03*
%TD*%
D28*
%TO.C,J3*%
X117300000Y-144650000D03*
D29*
X119840000Y-144650000D03*
X122380000Y-144650000D03*
%TD*%
D15*
%TO.C,C14*%
X63300000Y-168800000D03*
X61750000Y-168800000D03*
%TD*%
D17*
%TO.C,R25*%
X61405000Y-152400000D03*
X63055000Y-152400000D03*
%TD*%
D21*
%TO.C,R24*%
X63055000Y-163068000D03*
X61405000Y-163068000D03*
%TD*%
D17*
%TO.C,R23*%
X61405000Y-150622000D03*
X63055000Y-150622000D03*
%TD*%
D19*
%TO.C,C31*%
X83675000Y-170650000D03*
X86800000Y-170650000D03*
%TD*%
D17*
%TO.C,R31*%
X92600000Y-151950000D03*
X94250000Y-151950000D03*
%TD*%
D21*
%TO.C,R18*%
X63055000Y-148844000D03*
X61405000Y-148844000D03*
%TD*%
D30*
%TO.C,JP2*%
X66675000Y-151282500D03*
X67975000Y-151282500D03*
X69275000Y-151282500D03*
%TD*%
D31*
%TO.C,U4*%
X69243500Y-154984000D03*
X69243500Y-155484000D03*
X69243500Y-155984000D03*
X69243500Y-156484000D03*
X69243500Y-156984000D03*
X69243500Y-157484000D03*
X69243500Y-157984000D03*
X69243500Y-158484000D03*
X69243500Y-158984000D03*
X69243500Y-159484000D03*
X69243500Y-159984000D03*
X69243500Y-160484000D03*
D32*
X70656000Y-161896500D03*
X71156000Y-161896500D03*
X71656000Y-161896500D03*
X72156000Y-161896500D03*
X72656000Y-161896500D03*
X73156000Y-161896500D03*
X73656000Y-161896500D03*
X74156000Y-161896500D03*
X74656000Y-161896500D03*
X75156000Y-161896500D03*
X75656000Y-161896500D03*
X76156000Y-161896500D03*
D31*
X77568500Y-160484000D03*
X77568500Y-159984000D03*
X77568500Y-159484000D03*
X77568500Y-158984000D03*
X77568500Y-158484000D03*
X77568500Y-157984000D03*
X77568500Y-157484000D03*
X77568500Y-156984000D03*
X77568500Y-156484000D03*
X77568500Y-155984000D03*
X77568500Y-155484000D03*
X77568500Y-154984000D03*
D32*
X76156000Y-153571500D03*
X75656000Y-153571500D03*
X75156000Y-153571500D03*
X74656000Y-153571500D03*
X74156000Y-153571500D03*
X73656000Y-153571500D03*
X73156000Y-153571500D03*
X72656000Y-153571500D03*
X72156000Y-153571500D03*
X71656000Y-153571500D03*
X71156000Y-153571500D03*
X70656000Y-153571500D03*
%TD*%
D33*
%TO.C,BT1*%
X88950000Y-143300000D03*
D34*
X88950000Y-141300000D03*
%TD*%
D26*
%TO.C,D3*%
X82042000Y-166141500D03*
X82042000Y-164566500D03*
%TD*%
D15*
%TO.C,C3*%
X124473000Y-177038000D03*
X122923000Y-177038000D03*
%TD*%
D35*
%TO.C,U8*%
X54487500Y-171237500D03*
X55437500Y-171237500D03*
X56387500Y-171237500D03*
X56387500Y-168962500D03*
X54487500Y-168962500D03*
%TD*%
D25*
%TO.C,R9*%
X62300000Y-145350000D03*
X62300000Y-143700000D03*
%TD*%
D11*
%TO.C,C9*%
X115150500Y-150622000D03*
X116700500Y-150622000D03*
%TD*%
D15*
%TO.C,C20*%
X100350000Y-153250000D03*
X98800000Y-153250000D03*
%TD*%
D17*
%TO.C,R12*%
X64025000Y-179375000D03*
X65675000Y-179375000D03*
%TD*%
D36*
%TO.C,U3*%
X95750000Y-153562500D03*
D37*
X96250000Y-153562500D03*
X96750000Y-153562500D03*
D38*
X97250000Y-153562500D03*
D39*
X97412500Y-152900000D03*
D40*
X97412500Y-152400000D03*
D41*
X97412500Y-151900000D03*
D42*
X97250000Y-151237500D03*
D37*
X96750000Y-151237500D03*
X96250000Y-151237500D03*
D43*
X95750000Y-151237500D03*
D44*
X95587500Y-151900000D03*
D40*
X95587500Y-152400000D03*
D45*
X95587500Y-152900000D03*
%TD*%
D46*
%TO.C,C1*%
X106925000Y-171375000D03*
X106925000Y-169825000D03*
%TD*%
D21*
%TO.C,R21*%
X66357000Y-161290000D03*
X64707000Y-161290000D03*
%TD*%
D47*
%TO.C,C22*%
X74930000Y-164579000D03*
X74930000Y-166129000D03*
%TD*%
D30*
%TO.C,JP1*%
X66675000Y-148732500D03*
X67975000Y-148732500D03*
X69275000Y-148732500D03*
%TD*%
D17*
%TO.C,R6*%
X92600000Y-150500000D03*
X94250000Y-150500000D03*
%TD*%
D11*
%TO.C,C19*%
X61450000Y-164650000D03*
X63000000Y-164650000D03*
%TD*%
D48*
%TO.C,C38*%
X59850000Y-172000000D03*
X59850000Y-174075000D03*
%TD*%
D21*
%TO.C,R20*%
X63055000Y-166200000D03*
X61405000Y-166200000D03*
%TD*%
D47*
%TO.C,C45*%
X93100000Y-140250000D03*
X93100000Y-141800000D03*
%TD*%
D21*
%TO.C,R15*%
X102475000Y-147625000D03*
X100825000Y-147625000D03*
%TD*%
D20*
%TO.C,C13*%
X52600000Y-171025000D03*
X52600000Y-168950000D03*
%TD*%
D47*
%TO.C,C30*%
X85125000Y-158025000D03*
X85125000Y-159575000D03*
%TD*%
D11*
%TO.C,C27*%
X88125000Y-164338000D03*
X89675000Y-164338000D03*
%TD*%
D28*
%TO.C,J2*%
X67790000Y-136950000D03*
D29*
X65250000Y-136950000D03*
X62710000Y-136950000D03*
%TD*%
D49*
%TO.C,FB1*%
X115138000Y-153670000D03*
X116713000Y-153670000D03*
%TD*%
D21*
%TO.C,R10*%
X51117000Y-131572000D03*
X49467000Y-131572000D03*
%TD*%
D50*
%TO.C,R4*%
X52350000Y-172625000D03*
X52350000Y-174275000D03*
%TD*%
D47*
%TO.C,C37*%
X58050000Y-171850000D03*
X58050000Y-173400000D03*
%TD*%
D25*
%TO.C,R34*%
X80010000Y-158813000D03*
X80010000Y-157163000D03*
%TD*%
D11*
%TO.C,C29*%
X88125000Y-162814000D03*
X89675000Y-162814000D03*
%TD*%
D51*
%TO.C,Y2*%
X83474511Y-159266511D03*
X83474511Y-157066511D03*
X81774511Y-157066511D03*
X81774511Y-159266511D03*
%TD*%
D17*
%TO.C,R32*%
X92600000Y-153450000D03*
X94250000Y-153450000D03*
%TD*%
D48*
%TO.C,C21*%
X73125000Y-164725000D03*
X73125000Y-166800000D03*
%TD*%
D15*
%TO.C,C16*%
X63005000Y-157734000D03*
X61455000Y-157734000D03*
%TD*%
%TO.C,C28*%
X83474511Y-155202511D03*
X81924511Y-155202511D03*
%TD*%
D25*
%TO.C,R40*%
X95749400Y-160925000D03*
X95749400Y-159275000D03*
%TD*%
D28*
%TO.C,J6*%
X117310000Y-141000000D03*
D29*
X119850000Y-141000000D03*
X122390000Y-141000000D03*
%TD*%
D47*
%TO.C,C40*%
X97710000Y-159325000D03*
X97710000Y-160875000D03*
%TD*%
D21*
%TO.C,R30*%
X66357000Y-159512000D03*
X64707000Y-159512000D03*
%TD*%
D50*
%TO.C,R7*%
X58050000Y-168725000D03*
X58050000Y-170375000D03*
%TD*%
D11*
%TO.C,C34*%
X88125000Y-161290000D03*
X89675000Y-161290000D03*
%TD*%
D21*
%TO.C,R14*%
X102450000Y-146075000D03*
X100800000Y-146075000D03*
%TD*%
D52*
%TO.C,C36*%
X87475000Y-166100000D03*
X89550000Y-166100000D03*
%TD*%
D53*
%TO.C,J1*%
X49306000Y-152019000D03*
X49306000Y-163449000D03*
D54*
X52356000Y-149959000D03*
X52356000Y-165509000D03*
D55*
X45926000Y-164059000D03*
X44406000Y-161519000D03*
X45926000Y-153949000D03*
X44406000Y-151409000D03*
D56*
X55646000Y-153289000D03*
D57*
X58186000Y-154559000D03*
X55646000Y-155829000D03*
X58186000Y-157099000D03*
X55646000Y-158369000D03*
X58186000Y-159639000D03*
X55646000Y-160909000D03*
X58186000Y-162179000D03*
%TD*%
D21*
%TO.C,R28*%
X66357000Y-155956000D03*
X64707000Y-155956000D03*
%TD*%
D11*
%TO.C,C4*%
X116827000Y-177038000D03*
X118377000Y-177038000D03*
%TD*%
D15*
%TO.C,C6*%
X111887000Y-160020000D03*
X110337000Y-160020000D03*
%TD*%
D58*
%TO.C,U2*%
X61805000Y-175775000D03*
X63075000Y-175775000D03*
X64345000Y-175775000D03*
X65615000Y-175775000D03*
X66885000Y-175775000D03*
X68155000Y-175775000D03*
X69425000Y-175775000D03*
X70695000Y-175775000D03*
X70695000Y-170825000D03*
X69425000Y-170825000D03*
X68155000Y-170825000D03*
X66885000Y-170825000D03*
X65615000Y-170825000D03*
X64345000Y-170825000D03*
X63075000Y-170825000D03*
X61805000Y-170825000D03*
%TD*%
D21*
%TO.C,R26*%
X63055000Y-161290000D03*
X61405000Y-161290000D03*
%TD*%
D50*
%TO.C,R8*%
X59600000Y-168725000D03*
X59600000Y-170375000D03*
%TD*%
D21*
%TO.C,R22*%
X63055000Y-155956000D03*
X61405000Y-155956000D03*
%TD*%
D50*
%TO.C,R19*%
X80264000Y-164529000D03*
X80264000Y-166179000D03*
%TD*%
D28*
%TO.C,J4*%
X117300000Y-148275000D03*
D29*
X119840000Y-148275000D03*
X122380000Y-148275000D03*
%TD*%
D59*
%TO.C,Y3*%
X97400000Y-143725000D03*
X97400000Y-140825000D03*
X95100000Y-140825000D03*
X95100000Y-143725000D03*
%TD*%
D50*
%TO.C,R13*%
X66900000Y-139425000D03*
X66900000Y-141075000D03*
%TD*%
D25*
%TO.C,R5*%
X52324000Y-179133000D03*
X52324000Y-177483000D03*
%TD*%
D60*
%TO.C,C10*%
X67000000Y-168550000D03*
X64925000Y-168550000D03*
%TD*%
D11*
%TO.C,C32*%
X85077000Y-162814000D03*
X86627000Y-162814000D03*
%TD*%
%TO.C,C26*%
X82029000Y-161290000D03*
X83579000Y-161290000D03*
%TD*%
D15*
%TO.C,C7*%
X111900000Y-161544000D03*
X110350000Y-161544000D03*
%TD*%
D21*
%TO.C,R3*%
X121475000Y-177038000D03*
X119825000Y-177038000D03*
%TD*%
D47*
%TO.C,C41*%
X99250000Y-159325000D03*
X99250000Y-160875000D03*
%TD*%
D61*
%TO.C,J11*%
X59795000Y-142983000D03*
X59795000Y-141883000D03*
X59795000Y-140783000D03*
X59795000Y-139683000D03*
X59795000Y-138583000D03*
X59795000Y-137483000D03*
X59795000Y-136383000D03*
X59795000Y-135283000D03*
X59795000Y-134333000D03*
D62*
X49295000Y-133383000D03*
D63*
X55495000Y-133383000D03*
D64*
X45145000Y-133383000D03*
D63*
X59795000Y-144533000D03*
D65*
X44695000Y-146883000D03*
%TD*%
D46*
%TO.C,C12*%
X62300000Y-140975000D03*
X62300000Y-139425000D03*
%TD*%
D18*
%TO.C,U6*%
X74475000Y-170900000D03*
X74475000Y-171850000D03*
X74475000Y-172800000D03*
X76750000Y-172800000D03*
X76750000Y-171850000D03*
X76750000Y-170900000D03*
%TD*%
D15*
%TO.C,C46*%
X77325000Y-142400000D03*
X75775000Y-142400000D03*
%TD*%
D28*
%TO.C,J5*%
X117310000Y-137400000D03*
D29*
X119850000Y-137400000D03*
X122390000Y-137400000D03*
%TD*%
D47*
%TO.C,C44*%
X99450000Y-140200000D03*
X99450000Y-141750000D03*
%TD*%
D50*
%TO.C,R17*%
X76708000Y-164529000D03*
X76708000Y-166179000D03*
%TD*%
D11*
%TO.C,C43*%
X100850000Y-141415000D03*
X102400000Y-141415000D03*
%TD*%
%TO.C,C39*%
X72750000Y-142400000D03*
X74300000Y-142400000D03*
%TD*%
D66*
%TO.C,U9*%
X94337500Y-145950000D03*
X94337500Y-146600000D03*
X94337500Y-147250000D03*
X94337500Y-147900000D03*
X98562500Y-147900000D03*
X98562500Y-147250000D03*
X98562500Y-146600000D03*
X98562500Y-145950000D03*
%TD*%
D26*
%TO.C,FB2*%
X71287500Y-166167000D03*
X71287500Y-164592000D03*
%TD*%
D25*
%TO.C,R39*%
X94200000Y-160925000D03*
X94200000Y-159275000D03*
%TD*%
D20*
%TO.C,C23*%
X72500000Y-172912500D03*
X72500000Y-170837500D03*
%TD*%
D11*
%TO.C,C8*%
X115150500Y-152146000D03*
X116700500Y-152146000D03*
%TD*%
%TO.C,C17*%
X61455000Y-154178000D03*
X63005000Y-154178000D03*
%TD*%
D19*
%TO.C,C33*%
X83675000Y-173925000D03*
X86800000Y-173925000D03*
%TD*%
D50*
%TO.C,R2*%
X105375000Y-169775000D03*
X105375000Y-171425000D03*
%TD*%
D20*
%TO.C,C5*%
X102375000Y-161892500D03*
X102375000Y-159817500D03*
%TD*%
D25*
%TO.C,R11*%
X60100000Y-177325000D03*
X60100000Y-175675000D03*
%TD*%
D31*
%TO.C,U1*%
X114892500Y-157195000D03*
X114892500Y-157695000D03*
X114892500Y-158195000D03*
X114892500Y-158695000D03*
X114892500Y-159195000D03*
X114892500Y-159695000D03*
X114892500Y-160195000D03*
X114892500Y-160695000D03*
X114892500Y-161195000D03*
X114892500Y-161695000D03*
X114892500Y-162195000D03*
X114892500Y-162695000D03*
X114892500Y-163195000D03*
X114892500Y-163695000D03*
X114892500Y-164195000D03*
X114892500Y-164695000D03*
X114892500Y-165195000D03*
X114892500Y-165695000D03*
X114892500Y-166195000D03*
X114892500Y-166695000D03*
X114892500Y-167195000D03*
X114892500Y-167695000D03*
X114892500Y-168195000D03*
X114892500Y-168695000D03*
X114892500Y-169195000D03*
D32*
X116555000Y-170857500D03*
X117055000Y-170857500D03*
X117555000Y-170857500D03*
X118055000Y-170857500D03*
X118555000Y-170857500D03*
X119055000Y-170857500D03*
X119555000Y-170857500D03*
X120055000Y-170857500D03*
X120555000Y-170857500D03*
X121055000Y-170857500D03*
X121555000Y-170857500D03*
X122055000Y-170857500D03*
X122555000Y-170857500D03*
X123055000Y-170857500D03*
X123555000Y-170857500D03*
X124055000Y-170857500D03*
X124555000Y-170857500D03*
X125055000Y-170857500D03*
X125555000Y-170857500D03*
X126055000Y-170857500D03*
X126555000Y-170857500D03*
X127055000Y-170857500D03*
X127555000Y-170857500D03*
X128055000Y-170857500D03*
X128555000Y-170857500D03*
D31*
X130217500Y-169195000D03*
X130217500Y-168695000D03*
X130217500Y-168195000D03*
X130217500Y-167695000D03*
X130217500Y-167195000D03*
X130217500Y-166695000D03*
X130217500Y-166195000D03*
X130217500Y-165695000D03*
X130217500Y-165195000D03*
X130217500Y-164695000D03*
X130217500Y-164195000D03*
X130217500Y-163695000D03*
X130217500Y-163195000D03*
X130217500Y-162695000D03*
X130217500Y-162195000D03*
X130217500Y-161695000D03*
X130217500Y-161195000D03*
X130217500Y-160695000D03*
X130217500Y-160195000D03*
X130217500Y-159695000D03*
X130217500Y-159195000D03*
X130217500Y-158695000D03*
X130217500Y-158195000D03*
X130217500Y-157695000D03*
X130217500Y-157195000D03*
D32*
X128555000Y-155532500D03*
X128055000Y-155532500D03*
X127555000Y-155532500D03*
X127055000Y-155532500D03*
X126555000Y-155532500D03*
X126055000Y-155532500D03*
X125555000Y-155532500D03*
X125055000Y-155532500D03*
X124555000Y-155532500D03*
X124055000Y-155532500D03*
X123555000Y-155532500D03*
X123055000Y-155532500D03*
X122555000Y-155532500D03*
X122055000Y-155532500D03*
X121555000Y-155532500D03*
X121055000Y-155532500D03*
X120555000Y-155532500D03*
X120055000Y-155532500D03*
X119555000Y-155532500D03*
X119055000Y-155532500D03*
X118555000Y-155532500D03*
X118055000Y-155532500D03*
X117555000Y-155532500D03*
X117055000Y-155532500D03*
X116555000Y-155532500D03*
%TD*%
D11*
%TO.C,C25*%
X85090000Y-161290000D03*
X86640000Y-161290000D03*
%TD*%
D67*
%TO.C,J9*%
X48776000Y-172878000D03*
X48776000Y-178658000D03*
D68*
X50221000Y-172518000D03*
X50221000Y-173318000D03*
D69*
X50221000Y-174518000D03*
X50221000Y-175518000D03*
X50221000Y-176018000D03*
X50221000Y-177018000D03*
D68*
X50221000Y-178218000D03*
X50221000Y-179018000D03*
X50221000Y-179018000D03*
X50221000Y-178218000D03*
D69*
X50221000Y-177518000D03*
X50221000Y-176518000D03*
X50221000Y-175018000D03*
X50221000Y-174018000D03*
D68*
X50221000Y-173318000D03*
X50221000Y-172518000D03*
D70*
X49306000Y-171448000D03*
D71*
X45126000Y-171448000D03*
D70*
X49306000Y-180088000D03*
D71*
X45126000Y-180088000D03*
%TD*%
D72*
%TO.C,Y1*%
X121242000Y-173648000D03*
X119042000Y-173648000D03*
X119042000Y-175348000D03*
X121242000Y-175348000D03*
%TD*%
D73*
%TO.C,F1*%
X50550000Y-169225000D03*
X47750000Y-169225000D03*
%TD*%
D15*
%TO.C,C18*%
X100350000Y-151726000D03*
X98800000Y-151726000D03*
%TD*%
%TO.C,C15*%
X63005000Y-159512000D03*
X61455000Y-159512000D03*
%TD*%
D11*
%TO.C,C42*%
X100850000Y-142975000D03*
X102400000Y-142975000D03*
%TD*%
D21*
%TO.C,R16*%
X102450000Y-144525000D03*
X100800000Y-144525000D03*
%TD*%
D28*
%TO.C,J7*%
X90350000Y-155700000D03*
D29*
X90350000Y-158240000D03*
%TD*%
D21*
%TO.C,R29*%
X66357000Y-157734000D03*
X64707000Y-157734000D03*
%TD*%
D30*
%TO.C,JP3*%
X66675000Y-146175000D03*
X67975000Y-146175000D03*
X69275000Y-146175000D03*
%TD*%
M02*
