M48
; DRILL file {KiCad 9.0.2} date 2025-05-20T21:19:05-0400
; FORMAT={-:-/ absolute / metric / decimal}
; #@! TF.CreationDate,2025-05-20T21:19:05-04:00
; #@! TF.GenerationSoftware,Kicad,Pcbnew,9.0.2
; #@! TF.FileFunction,Plated,1,2,PTH
FMAT,2
METRIC
; #@! TA.AperFunction,Plated,PTH,ViaDrill
T1C0.300
; #@! TA.AperFunction,Plated,PTH,ViaDrill
T2C0.400
; #@! TA.AperFunction,Plated,PTH,ComponentDrill
T3C0.600
; #@! TA.AperFunction,Plated,PTH,ComponentDrill
T4C0.750
; #@! TA.AperFunction,Plated,PTH,ComponentDrill
T5C0.850
; #@! TA.AperFunction,Plated,PTH,ComponentDrill
T6C0.890
; #@! TA.AperFunction,Plated,PTH,ComponentDrill
T7C0.900
; #@! TA.AperFunction,Plated,PTH,ComponentDrill
T8C1.000
; #@! TA.AperFunction,Plated,PTH,ComponentDrill
T9C1.600
%
G90
G05
T1
X58.75Y-138.85
X58.75Y-139.65
X58.75Y-140.5
X58.9Y-141.85
X63.754Y-155.956
X63.8Y-154.2
X64.3Y-142.454
X64.3Y-143.128
X66.1Y-141.854
X66.1Y-142.454
X66.1Y-143.054
X66.1Y-143.654
X69.65Y-141.854
X69.684Y-154.434
X73.325Y-147.63
X73.45Y-142.45
X74.02Y-148.191
X76.2Y-177.0
X77.589Y-152.873
X79.713Y-151.827
X79.756Y-134.51
X80.3Y-139.85
X80.9Y-139.241
X80.9Y-139.841
X81.475Y-145.638
X85.135Y-144.065
X88.9Y-136.906
X90.048Y-168.523
X92.964Y-155.125
X93.45Y-152.0
X96.075Y-155.924
X96.075Y-156.94
X96.52Y-137.424
X97.091Y-155.924
X97.091Y-156.94
X97.867Y-153.917
X102.45Y-138.422
X109.184Y-167.93
X109.474Y-149.86
X109.893Y-168.639
X110.236Y-169.164
X110.49Y-171.287
X110.558Y-131.954
X110.65Y-135.374
X112.189Y-166.195
X112.523Y-134.873
X112.705Y-166.695
X112.776Y-156.972
X112.776Y-157.734
X113.221Y-167.195
X113.284Y-149.86
X113.792Y-167.695
X114.156Y-170.925
X114.172Y-171.576
X114.808Y-175.768
X114.95Y-137.9
X115.57Y-132.588
X115.916Y-171.973
X115.951Y-172.593
X115.951Y-173.228
X115.951Y-173.863
X116.005Y-170.619
X116.005Y-171.268
X116.029Y-168.656
X116.703Y-168.9
X116.808Y-169.753
X116.84Y-132.588
X117.474Y-169.721
X118.11Y-169.672
X118.618Y-168.402
X119.118Y-167.922
X119.67Y-169.07
X119.988Y-168.538
X120.151Y-169.721
X120.225Y-167.95
X120.795Y-169.75
X121.055Y-172.161
X122.132Y-169.697
X122.555Y-167.95
X122.809Y-169.672
X123.444Y-169.672
X124.079Y-169.672
X124.758Y-169.699
X125.416Y-169.725
X125.611Y-175.998
X126.05Y-141.3
X126.05Y-141.9
X126.935Y-154.21
X127.102Y-169.72
X127.105Y-172.005
X127.331Y-153.76
X127.397Y-157.397
X127.55Y-153.154
X127.643Y-172.532
X127.667Y-169.322
X128.001Y-165.608
X128.016Y-166.37
X128.092Y-156.82
X128.15Y-153.144
X128.281Y-158.237
X128.281Y-159.0
X129.105Y-170.979
X129.953Y-141.8
X130.354Y-141.177
X131.572Y-160.528
X131.572Y-161.29
X131.572Y-162.052
X131.572Y-162.814
X131.572Y-163.576
X131.76Y-159.766
X133.096Y-172.601
X133.633Y-175.22
X133.974Y-175.771
X134.546Y-176.134
X135.128Y-176.784
X136.525Y-159.725
X140.894Y-157.709
X141.732Y-161.544
X142.377Y-160.605
X143.002Y-163.576
T2
X43.942Y-172.72
X43.942Y-173.99
X43.942Y-175.26
X43.942Y-176.53
X43.942Y-177.8
X43.95Y-134.65
X43.95Y-148.9
X45.1Y-148.95
X45.15Y-134.65
X45.72Y-160.274
X45.974Y-161.76
X46.3Y-146.55
X46.3Y-147.8
X46.3Y-149.0
X47.35Y-133.35
X48.26Y-137.16
X48.26Y-139.7
X48.26Y-142.24
X48.26Y-154.94
X48.26Y-157.48
X50.8Y-137.16
X50.8Y-139.7
X50.8Y-142.24
X50.8Y-154.94
X50.8Y-157.48
X51.25Y-171.0
X54.25Y-133.375
X55.45Y-170.15
X55.575Y-134.525
X58.65Y-134.35
X60.452Y-150.622
X60.452Y-152.4
X60.95Y-143.708
X60.95Y-176.5
X61.45Y-134.35
X62.2Y-178.4
X62.2Y-179.3
X62.228Y-149.625
X63.049Y-177.35
X63.05Y-174.427
X63.711Y-172.226
X64.0Y-140.15
X64.0Y-141.1
X64.35Y-174.45
X65.55Y-172.227
X65.675Y-177.05
X65.855Y-180.55
X67.45Y-168.8
X67.584Y-180.558
X67.725Y-144.425
X67.929Y-160.236
X67.934Y-156.251
X67.937Y-158.708
X68.939Y-144.45
X69.15Y-140.75
X69.275Y-148.725
X69.275Y-151.282
X69.325Y-146.975
X70.104Y-166.116
X70.339Y-144.662
X71.12Y-155.448
X71.12Y-156.464
X71.12Y-159.004
X71.12Y-160.02
X71.628Y-163.576
X72.136Y-160.02
X72.3Y-170.0
X72.644Y-163.576
X73.152Y-155.448
X73.476Y-149.924
X73.5Y-143.725
X73.66Y-160.02
X74.05Y-166.875
X74.168Y-155.448
X74.676Y-163.53
X74.705Y-148.604
X75.184Y-155.448
X75.35Y-145.025
X75.692Y-158.496
X75.692Y-160.02
X75.775Y-143.35
X75.925Y-167.132
X76.175Y-146.55
X76.225Y-175.4
X76.299Y-133.285
X76.5Y-173.8
X76.856Y-152.372
X77.525Y-173.825
X77.55Y-175.425
X78.302Y-154.237
X78.5Y-173.825
X78.976Y-134.686
X79.155Y-148.4
X79.268Y-153.892
X80.155Y-148.4
X80.475Y-146.5
X81.191Y-166.929
X81.28Y-152.781
X81.325Y-149.625
X81.35Y-136.75
X81.441Y-160.181
X81.473Y-146.438
X83.566Y-160.666
X84.15Y-144.325
X84.15Y-146.2
X85.15Y-156.875
X85.16Y-164.776
X85.35Y-174.275
X85.45Y-140.85
X86.598Y-142.644
X86.624Y-147.95
X86.624Y-148.95
X86.624Y-149.95
X86.624Y-150.95
X86.624Y-151.95
X86.625Y-160.25
X86.7Y-174.25
X86.75Y-157.2
X86.75Y-172.775
X86.775Y-171.8
X86.8Y-170.75
X87.59Y-142.52
X87.621Y-145.279
X89.225Y-147.95
X89.225Y-148.95
X89.225Y-149.95
X89.4Y-153.675
X90.0Y-176.8
X90.475Y-162.0
X90.525Y-163.525
X91.4Y-146.15
X91.44Y-142.24
X91.44Y-144.78
X91.632Y-153.959
X91.875Y-170.635
X91.875Y-173.175
X91.95Y-140.275
X92.2Y-148.176
X93.078Y-158.102
X93.9Y-155.85
X94.234Y-158.069
X95.743Y-147.7
X96.25Y-142.175
X96.52Y-152.4
X96.65Y-161.975
X97.975Y-154.869
X98.1Y-168.11
X98.1Y-170.65
X98.1Y-173.19
X99.1Y-150.65
X99.19Y-162.05
X99.865Y-145.474
X100.912Y-139.023
X101.4Y-157.05
X101.6Y-152.4
X101.6Y-165.1
X101.7Y-174.6
X101.75Y-140.25
X101.854Y-159.258
X102.6Y-163.4
X102.678Y-140.25
X103.175Y-174.6
X104.54Y-136.95
X105.476Y-138.4
X106.047Y-140.078
X106.364Y-141.078
X106.68Y-170.18
X106.82Y-142.67
X107.35Y-166.65
X107.86Y-142.85
X109.15Y-135.05
X109.22Y-170.18
X109.35Y-142.65
X110.363Y-160.807
X110.49Y-130.302
X111.757Y-141.85
X111.757Y-142.85
X111.9Y-160.769
X112.2Y-163.4
X113.209Y-161.917
X115.189Y-154.559
X117.348Y-176.022
X117.805Y-151.8
X117.805Y-152.75
X118.897Y-173.584
X119.279Y-149.826
X119.318Y-150.825
X120.65Y-175.26
X120.855Y-159.258
X124.206Y-176.022
X125.639Y-154.196
X126.5Y-157.0
X129.024Y-164.204
X129.255Y-171.816
X129.54Y-134.62
X137.393Y-170.212
X140.524Y-159.905
X142.24Y-132.08
X142.24Y-134.62
X142.24Y-137.16
X142.24Y-139.7
X142.24Y-142.24
X142.24Y-144.78
X142.24Y-147.32
X142.24Y-149.86
X142.24Y-152.4
T4
X88.95Y-141.3
X88.95Y-143.3
T5
X61.951Y-130.825
X64.491Y-130.825
X67.031Y-130.825
X69.571Y-130.825
X71.095Y-179.085
X72.111Y-130.825
X73.635Y-179.085
X74.651Y-130.825
X76.175Y-179.085
X77.191Y-130.825
X78.715Y-179.085
X79.731Y-130.825
X81.255Y-179.085
X82.271Y-130.825
X83.795Y-179.085
X84.811Y-130.825
X86.335Y-179.085
X88.875Y-130.825
X88.875Y-179.085
X91.415Y-130.825
X93.955Y-130.825
X93.955Y-179.085
X96.495Y-130.825
X96.495Y-179.085
X99.035Y-130.825
X99.035Y-179.085
X101.575Y-130.825
X101.575Y-179.085
X104.115Y-130.825
X104.115Y-179.085
X106.655Y-130.825
X106.655Y-179.085
X109.195Y-179.085
X111.735Y-130.825
X111.735Y-179.085
X114.275Y-130.825
X116.815Y-130.825
X116.815Y-179.085
X119.355Y-130.825
X119.355Y-179.085
X121.895Y-130.825
X121.895Y-179.085
X124.435Y-130.825
X124.435Y-179.085
X126.975Y-130.825
X126.975Y-179.085
X129.515Y-130.825
X129.515Y-179.085
X131.801Y-179.085
X134.341Y-179.085
X137.135Y-130.825
X137.135Y-133.365
X137.135Y-135.905
X137.135Y-138.445
X137.135Y-140.985
X137.135Y-143.525
X137.135Y-146.065
X137.135Y-148.605
X137.135Y-151.145
X137.135Y-153.685
X137.135Y-156.225
X137.135Y-158.765
X137.135Y-161.305
X137.135Y-163.845
X137.135Y-166.385
X137.135Y-168.925
X137.135Y-171.465
X137.135Y-174.005
X139.675Y-130.825
X139.675Y-133.365
X139.675Y-135.905
X139.675Y-138.445
X139.675Y-140.985
X139.675Y-143.525
X139.675Y-146.065
X139.675Y-148.605
X139.675Y-151.145
X139.675Y-153.685
X139.675Y-156.225
X139.675Y-158.765
X139.675Y-161.305
X139.675Y-163.845
X139.675Y-166.385
X139.675Y-168.925
X139.675Y-171.465
X139.675Y-174.005
T6
X44.406Y-151.409
X44.406Y-161.519
X45.926Y-153.949
X45.926Y-164.059
T7
X55.646Y-153.289
X55.646Y-155.829
X55.646Y-158.369
X55.646Y-160.909
X58.186Y-154.559
X58.186Y-157.099
X58.186Y-159.639
X58.186Y-162.179
T8
X62.71Y-136.95
X65.25Y-136.95
X67.79Y-136.95
X90.35Y-155.7
X90.35Y-158.24
X117.3Y-144.65
X117.3Y-148.275
X117.31Y-137.4
X117.31Y-141.0
X119.84Y-144.65
X119.84Y-148.275
X119.85Y-137.4
X119.85Y-141.0
X122.38Y-144.65
X122.38Y-148.275
X122.39Y-137.4
X122.39Y-141.0
T9
X52.356Y-149.959
X52.356Y-165.509
T3
G00X45.426Y-171.448
M15
G01X44.826Y-171.448
M16
G05
G00X45.426Y-180.088
M15
G01X44.826Y-180.088
M16
G05
G00X49.856Y-171.448
M15
G01X48.756Y-171.448
M16
G05
G00X49.856Y-180.088
M15
G01X48.756Y-180.088
M16
G05
M30
