M48
; DRILL file {KiCad 9.0.2} date 2025-05-19T21:22:32-0400
; FORMAT={-:-/ absolute / metric / decimal}
; #@! TF.CreationDate,2025-05-19T21:22:32-04:00
; #@! TF.GenerationSoftware,Kicad,Pcbnew,9.0.2
; #@! TF.FileFunction,Plated,1,2,PTH
FMAT,2
METRIC
; #@! TA.AperFunction,Plated,PTH,ViaDrill
T1C0.300
; #@! TA.AperFunction,Plated,PTH,ViaDrill
T2C0.400
; #@! TA.AperFunction,Plated,PTH,ComponentDrill
T3C0.600
; #@! TA.AperFunction,Plated,PTH,ComponentDrill
T4C0.750
; #@! TA.AperFunction,Plated,PTH,ComponentDrill
T5C0.850
; #@! TA.AperFunction,Plated,PTH,ComponentDrill
T6C0.890
; #@! TA.AperFunction,Plated,PTH,ComponentDrill
T7C0.900
; #@! TA.AperFunction,Plated,PTH,ComponentDrill
T8C1.000
; #@! TA.AperFunction,Plated,PTH,ComponentDrill
T9C1.600
%
G90
G05
T1
X55.118Y-133.096
X55.118Y-133.604
X55.88Y-133.096
X55.88Y-133.604
X58.75Y-138.85
X58.75Y-139.65
X58.75Y-140.5
X58.9Y-141.85
X63.05Y-142.9
X63.45Y-142.383
X63.754Y-155.956
X63.8Y-154.2
X66.1Y-141.64
X66.1Y-142.24
X66.1Y-143.654
X66.625Y-143.326
X69.684Y-154.434
X69.703Y-144.395
X70.302Y-144.362
X76.2Y-175.67
X76.65Y-145.6
X76.65Y-149.05
X77.6Y-146.812
X78.74Y-147.828
X79.248Y-153.721
X79.756Y-134.51
X80.226Y-142.14
X80.255Y-147.828
X80.264Y-149.243
X80.3Y-139.85
X80.826Y-142.14
X80.9Y-139.241
X80.9Y-139.841
X81.08Y-153.721
X81.292Y-146.824
X82.042Y-149.606
X82.658Y-141.642
X84.074Y-145.288
X84.074Y-150.114
X85.982Y-148.318
X87.225Y-149.05
X87.225Y-149.65
X87.225Y-152.3
X88.9Y-136.906
X89.025Y-151.036
X89.154Y-149.15
X89.799Y-175.706
X90.048Y-168.523
X90.1Y-149.352
X92.964Y-155.125
X93.45Y-152.0
X96.075Y-155.924
X96.075Y-156.433
X96.075Y-156.94
X96.52Y-137.424
X96.583Y-155.924
X96.583Y-156.433
X96.583Y-156.94
X97.091Y-155.924
X97.091Y-156.433
X97.091Y-156.94
X97.867Y-153.917
X102.45Y-138.422
X102.489Y-174.244
X102.489Y-174.752
X103.632Y-174.244
X103.632Y-174.752
X109.184Y-167.93
X109.474Y-149.86
X109.893Y-168.639
X110.236Y-169.164
X110.49Y-171.287
X110.558Y-131.954
X110.65Y-135.374
X112.189Y-166.195
X112.523Y-134.873
X112.705Y-166.695
X112.776Y-156.972
X112.776Y-157.734
X113.221Y-167.195
X113.284Y-149.86
X113.792Y-167.695
X114.156Y-170.925
X114.172Y-171.576
X114.808Y-175.768
X114.95Y-137.9
X115.57Y-132.588
X115.916Y-171.973
X115.951Y-172.593
X115.951Y-173.228
X115.951Y-173.863
X116.005Y-170.619
X116.005Y-171.268
X116.029Y-168.656
X116.703Y-168.9
X116.808Y-169.753
X116.84Y-132.588
X117.474Y-169.721
X118.11Y-169.672
X118.618Y-168.402
X119.118Y-167.922
X119.67Y-169.07
X119.988Y-168.538
X120.151Y-169.721
X120.225Y-167.95
X120.795Y-169.75
X121.055Y-172.161
X122.132Y-169.697
X122.555Y-167.95
X122.809Y-169.672
X123.444Y-169.672
X124.079Y-169.672
X124.758Y-169.699
X125.416Y-169.725
X125.611Y-175.998
X126.05Y-141.3
X126.05Y-141.9
X126.935Y-154.21
X127.102Y-169.72
X127.105Y-172.005
X127.331Y-153.76
X127.397Y-157.397
X127.55Y-153.154
X127.643Y-172.532
X127.667Y-169.322
X128.001Y-165.608
X128.016Y-166.37
X128.092Y-156.82
X128.15Y-153.144
X128.281Y-158.237
X128.281Y-159.0
X129.105Y-171.45
X129.54Y-170.942
X129.953Y-141.8
X130.354Y-141.177
X131.572Y-160.528
X131.572Y-161.29
X131.572Y-162.052
X131.572Y-162.814
X131.572Y-163.576
X131.76Y-159.766
X133.096Y-172.601
X133.633Y-175.22
X133.974Y-175.771
X134.546Y-176.134
X135.128Y-176.784
X136.144Y-159.766
X136.151Y-171.951
X140.894Y-157.709
X141.732Y-161.544
X142.377Y-160.605
X143.002Y-163.576
T2
X43.942Y-172.72
X43.942Y-173.99
X43.942Y-175.26
X43.942Y-176.53
X43.942Y-177.8
X43.95Y-134.65
X43.95Y-148.9
X45.1Y-148.95
X45.15Y-134.65
X45.72Y-160.274
X45.974Y-161.76
X46.3Y-146.55
X46.3Y-147.8
X46.3Y-149.0
X47.35Y-133.35
X48.26Y-137.16
X48.26Y-139.7
X48.26Y-142.24
X48.26Y-154.94
X48.26Y-157.48
X50.8Y-137.16
X50.8Y-139.7
X50.8Y-142.24
X50.8Y-142.24
X50.8Y-154.94
X50.8Y-157.48
X51.25Y-171.0
X55.45Y-170.15
X58.65Y-134.35
X60.452Y-150.622
X60.452Y-152.4
X60.95Y-176.5
X61.412Y-143.708
X61.45Y-134.35
X62.2Y-178.4
X62.2Y-179.3
X63.049Y-177.35
X63.05Y-174.427
X63.711Y-172.226
X64.0Y-140.15
X64.0Y-141.1
X64.008Y-148.844
X64.35Y-174.45
X65.55Y-172.227
X65.675Y-177.05
X65.855Y-180.55
X67.45Y-168.8
X67.584Y-180.558
X67.929Y-160.236
X67.934Y-156.251
X67.937Y-158.708
X70.104Y-166.116
X71.12Y-155.448
X71.12Y-156.464
X71.12Y-159.004
X71.12Y-160.02
X71.628Y-163.576
X72.136Y-160.02
X72.644Y-163.576
X73.152Y-155.448
X73.152Y-167.132
X73.66Y-160.02
X73.914Y-170.815
X74.168Y-155.448
X74.5Y-173.25
X74.5Y-174.3
X74.676Y-163.53
X74.93Y-167.132
X75.184Y-155.448
X75.692Y-158.496
X75.692Y-160.02
X76.299Y-133.285
X76.708Y-167.132
X77.47Y-169.291
X78.04Y-146.112
X78.976Y-134.686
X79.502Y-170.561
X80.264Y-166.624
X81.28Y-150.114
X81.28Y-152.781
X81.35Y-136.75
X81.441Y-160.181
X82.042Y-170.561
X83.566Y-160.666
X84.582Y-170.561
X85.15Y-156.875
X85.16Y-164.776
X85.45Y-140.85
X86.614Y-160.782
X86.714Y-142.038
X86.75Y-157.2
X87.59Y-142.52
X87.621Y-145.279
X89.613Y-165.149
X89.613Y-166.37
X89.675Y-162.039
X89.675Y-163.563
X91.4Y-146.15
X91.44Y-142.24
X91.44Y-144.78
X91.44Y-170.18
X91.44Y-172.72
X91.632Y-153.959
X92.202Y-148.175
X93.078Y-158.102
X93.9Y-155.85
X93.98Y-167.64
X93.98Y-170.18
X93.98Y-172.72
X94.234Y-158.069
X95.743Y-147.7
X96.52Y-152.4
X97.64Y-162.05
X97.975Y-154.869
X99.1Y-150.65
X99.19Y-162.05
X100.119Y-145.16
X100.912Y-139.023
X101.4Y-157.05
X101.6Y-152.4
X101.6Y-165.1
X101.7Y-174.6
X101.75Y-140.25
X101.854Y-159.258
X102.6Y-163.4
X102.678Y-140.25
X104.54Y-136.95
X105.476Y-138.4
X106.047Y-140.078
X106.364Y-141.078
X106.68Y-170.18
X106.82Y-142.67
X107.35Y-166.65
X107.86Y-142.85
X109.15Y-135.05
X109.22Y-170.18
X109.35Y-142.65
X110.363Y-160.807
X110.49Y-130.302
X111.757Y-141.85
X111.757Y-142.85
X111.9Y-160.769
X112.2Y-163.4
X113.209Y-161.917
X115.189Y-154.559
X117.348Y-176.022
X117.805Y-151.8
X117.805Y-152.75
X118.897Y-173.584
X119.279Y-149.826
X119.318Y-150.825
X120.65Y-175.26
X120.855Y-159.258
X124.206Y-176.022
X125.639Y-154.196
X126.5Y-157.0
X129.024Y-164.204
X129.54Y-134.62
X142.24Y-132.08
X142.24Y-134.62
X142.24Y-137.16
X142.24Y-139.7
X142.24Y-142.24
X142.24Y-144.78
X142.24Y-147.32
X142.24Y-149.86
X142.24Y-152.4
T4
X88.95Y-141.3
X88.95Y-143.3
T5
X61.976Y-130.81
X64.516Y-130.81
X67.056Y-130.81
X69.596Y-130.81
X71.12Y-179.07
X72.136Y-130.81
X73.66Y-179.07
X74.676Y-130.81
X76.2Y-179.07
X77.216Y-130.81
X78.74Y-179.07
X79.756Y-130.81
X81.28Y-179.07
X82.296Y-130.81
X83.82Y-179.07
X84.836Y-130.81
X86.36Y-179.07
X88.9Y-130.81
X88.9Y-179.07
X91.44Y-130.81
X93.98Y-130.81
X93.98Y-179.07
X96.52Y-130.81
X96.52Y-179.07
X99.06Y-130.81
X99.06Y-179.07
X101.6Y-130.81
X101.6Y-179.07
X104.14Y-130.81
X104.14Y-179.07
X106.68Y-130.81
X106.68Y-179.07
X109.22Y-179.07
X111.76Y-130.81
X111.76Y-179.07
X114.3Y-130.81
X116.84Y-130.81
X116.84Y-179.07
X119.38Y-130.81
X119.38Y-179.07
X121.92Y-130.81
X121.92Y-179.07
X124.46Y-130.81
X124.46Y-179.07
X127.0Y-130.81
X127.0Y-179.07
X129.54Y-130.81
X129.54Y-179.07
X131.826Y-179.07
X134.366Y-179.07
X137.16Y-130.81
X137.16Y-133.35
X137.16Y-135.89
X137.16Y-138.43
X137.16Y-140.97
X137.16Y-143.51
X137.16Y-146.05
X137.16Y-148.59
X137.16Y-151.13
X137.16Y-153.67
X137.16Y-156.21
X137.16Y-158.75
X137.16Y-161.29
X137.16Y-163.83
X137.16Y-166.37
X137.16Y-168.91
X137.16Y-171.45
X137.16Y-173.99
X139.7Y-130.81
X139.7Y-133.35
X139.7Y-135.89
X139.7Y-138.43
X139.7Y-140.97
X139.7Y-143.51
X139.7Y-146.05
X139.7Y-148.59
X139.7Y-151.13
X139.7Y-153.67
X139.7Y-156.21
X139.7Y-158.75
X139.7Y-161.29
X139.7Y-163.83
X139.7Y-166.37
X139.7Y-168.91
X139.7Y-171.45
X139.7Y-173.99
T6
X44.406Y-151.409
X44.406Y-161.519
X45.926Y-153.949
X45.926Y-164.059
T7
X55.646Y-153.289
X55.646Y-155.829
X55.646Y-158.369
X55.646Y-160.909
X58.186Y-154.559
X58.186Y-157.099
X58.186Y-159.639
X58.186Y-162.179
T8
X62.71Y-136.95
X65.25Y-136.95
X67.79Y-136.95
X90.35Y-155.7
X90.35Y-158.24
X117.3Y-144.65
X117.3Y-148.275
X117.31Y-137.4
X117.31Y-141.0
X119.84Y-144.65
X119.84Y-148.275
X119.85Y-137.4
X119.85Y-141.0
X122.38Y-144.65
X122.38Y-148.275
X122.39Y-137.4
X122.39Y-141.0
T9
X52.356Y-149.959
X52.356Y-165.509
T3
G00X45.426Y-171.448
M15
G01X44.826Y-171.448
M16
G05
G00X45.426Y-180.088
M15
G01X44.826Y-180.088
M16
G05
G00X49.856Y-171.448
M15
G01X48.756Y-171.448
M16
G05
G00X49.856Y-180.088
M15
G01X48.756Y-180.088
M16
G05
M30
