M48
; DRILL file {KiCad 9.0.2} date 2025-05-17T21:56:06-0400
; FORMAT={-:-/ absolute / metric / decimal}
; #@! TF.CreationDate,2025-05-17T21:56:06-04:00
; #@! TF.GenerationSoftware,Kicad,Pcbnew,9.0.2
; #@! TF.FileFunction,Plated,1,2,PTH
FMAT,2
METRIC
; #@! TA.AperFunction,Plated,PTH,ViaDrill
T1C0.300
; #@! TA.AperFunction,Plated,PTH,ViaDrill
T2C0.400
; #@! TA.AperFunction,Plated,PTH,ComponentDrill
T3C0.600
; #@! TA.AperFunction,Plated,PTH,ComponentDrill
T4C0.850
; #@! TA.AperFunction,Plated,PTH,ComponentDrill
T5C0.890
; #@! TA.AperFunction,Plated,PTH,ComponentDrill
T6C0.900
; #@! TA.AperFunction,Plated,PTH,ComponentDrill
T7C1.600
; #@! TA.AperFunction,Plated,PTH,ViaDrill
T8C3.000
%
G90
G05
T1
X43.942Y-133.096
X43.942Y-133.604
X43.942Y-146.558
X43.942Y-147.066
X44.704Y-133.096
X44.704Y-133.604
X44.704Y-146.558
X44.704Y-147.066
X45.466Y-133.096
X45.466Y-133.604
X45.466Y-146.558
X45.466Y-147.066
X46.228Y-133.096
X46.228Y-133.604
X55.118Y-133.096
X55.118Y-133.604
X55.88Y-133.096
X55.88Y-133.604
X59.436Y-139.7
X60.198Y-139.7
X60.8Y-141.883
X60.96Y-139.192
X60.96Y-139.7
X60.96Y-140.208
X61.722Y-139.192
X61.722Y-139.7
X61.722Y-140.208
X63.754Y-155.956
X65.532Y-144.526
X66.04Y-144.526
X67.072Y-142.24
X67.072Y-143.01
X68.872Y-140.97
X68.872Y-142.24
X68.872Y-143.708
X69.434Y-143.309
X76.2Y-175.67
X78.24Y-146.812
X78.74Y-147.828
X79.248Y-153.721
X79.756Y-134.51
X80.255Y-147.828
X80.258Y-140.656
X80.264Y-149.243
X80.375Y-137.3
X80.764Y-141.161
X81.08Y-153.721
X81.292Y-146.824
X82.042Y-149.606
X82.804Y-141.986
X82.967Y-138.467
X83.063Y-137.663
X84.074Y-145.288
X84.074Y-150.114
X85.598Y-147.828
X87.225Y-148.463
X87.225Y-149.352
X87.225Y-153.721
X88.9Y-136.906
X89.024Y-153.721
X89.154Y-148.463
X89.799Y-175.706
X89.916Y-129.794
X90.1Y-149.352
X90.805Y-129.159
X96.075Y-155.924
X96.075Y-156.433
X96.075Y-156.94
X96.52Y-137.424
X96.583Y-155.924
X96.583Y-156.433
X96.583Y-156.94
X97.091Y-155.924
X97.091Y-156.433
X97.091Y-156.94
X102.489Y-174.244
X102.489Y-174.752
X103.632Y-174.244
X103.632Y-174.752
X107.061Y-138.557
X109.184Y-167.93
X109.474Y-149.86
X109.893Y-168.639
X110.236Y-169.164
X110.49Y-171.287
X110.558Y-131.954
X111.252Y-135.636
X112.189Y-166.195
X112.523Y-134.873
X112.705Y-166.695
X112.776Y-156.972
X112.776Y-157.734
X113.221Y-167.195
X113.284Y-149.86
X113.792Y-167.695
X114.156Y-170.925
X114.172Y-171.576
X114.808Y-175.768
X114.935Y-138.557
X115.57Y-132.588
X115.916Y-171.973
X115.951Y-172.593
X115.951Y-173.228
X115.951Y-173.863
X116.005Y-170.619
X116.005Y-171.268
X116.029Y-168.656
X116.703Y-168.9
X116.808Y-169.753
X116.84Y-132.588
X117.474Y-169.721
X117.474Y-169.721
X118.11Y-169.672
X118.618Y-168.402
X119.118Y-167.922
X119.67Y-169.07
X119.988Y-168.538
X120.151Y-169.721
X120.225Y-167.95
X120.795Y-169.75
X121.055Y-172.161
X121.65Y-167.75
X122.132Y-169.697
X122.555Y-167.95
X122.809Y-169.672
X123.444Y-169.672
X124.079Y-169.672
X124.758Y-169.699
X125.416Y-169.725
X125.484Y-144.577
X125.484Y-145.593
X125.611Y-175.998
X125.984Y-153.441
X126.619Y-153.187
X127.102Y-169.72
X127.105Y-172.005
X127.13Y-152.831
X127.397Y-157.397
X127.58Y-152.349
X127.643Y-172.532
X127.667Y-169.322
X128.001Y-165.608
X128.016Y-166.37
X128.092Y-156.82
X128.281Y-158.237
X128.281Y-159.0
X129.105Y-171.45
X129.531Y-144.667
X129.531Y-145.373
X129.54Y-170.942
X131.572Y-160.528
X131.572Y-161.29
X131.572Y-162.052
X131.572Y-162.814
X131.572Y-163.576
X131.76Y-159.766
X133.096Y-172.601
X133.633Y-175.22
X133.974Y-175.771
X134.546Y-176.134
X135.128Y-176.784
X136.144Y-159.766
X136.151Y-171.951
X140.894Y-157.709
X141.732Y-161.544
X142.377Y-160.605
X143.002Y-163.576
T2
X43.942Y-172.72
X43.942Y-173.99
X43.942Y-175.26
X43.942Y-176.53
X43.942Y-177.8
X45.72Y-160.274
X45.974Y-161.76
X48.26Y-137.16
X48.26Y-139.7
X48.26Y-142.24
X48.26Y-154.94
X48.26Y-157.48
X50.8Y-137.16
X50.8Y-139.7
X50.8Y-142.24
X50.8Y-142.24
X50.8Y-154.94
X50.8Y-157.48
X51.25Y-171.0
X55.45Y-170.15
X58.65Y-134.35
X60.452Y-150.622
X60.452Y-152.4
X60.95Y-176.5
X61.406Y-134.35
X61.412Y-143.708
X62.2Y-178.4
X62.2Y-179.3
X63.049Y-177.35
X63.05Y-174.427
X63.711Y-172.226
X63.754Y-154.178
X64.008Y-148.844
X64.35Y-174.45
X64.77Y-139.954
X65.55Y-172.227
X65.675Y-177.05
X65.786Y-138.938
X65.786Y-139.954
X65.855Y-180.55
X66.802Y-138.938
X66.802Y-139.954
X67.45Y-168.8
X67.584Y-180.558
X67.929Y-160.236
X67.934Y-156.251
X67.937Y-158.708
X68.58Y-149.86
X68.58Y-152.4
X70.104Y-166.116
X71.12Y-137.16
X71.12Y-144.78
X71.12Y-155.448
X71.12Y-156.464
X71.12Y-159.004
X71.12Y-160.02
X71.628Y-163.576
X72.136Y-160.02
X72.644Y-163.576
X73.152Y-155.448
X73.152Y-167.132
X73.66Y-137.16
X73.66Y-144.78
X73.66Y-147.32
X73.66Y-160.02
X73.914Y-170.815
X74.168Y-155.448
X74.5Y-173.25
X74.5Y-174.3
X74.676Y-163.53
X74.75Y-140.8
X74.93Y-167.132
X75.184Y-155.448
X75.692Y-158.496
X75.692Y-160.02
X76.2Y-137.16
X76.2Y-144.78
X76.2Y-147.32
X76.2Y-149.86
X76.708Y-167.132
X77.47Y-169.291
X77.75Y-140.8
X78.74Y-137.16
X79.502Y-170.561
X80.264Y-166.624
X81.28Y-150.114
X81.28Y-151.384
X81.28Y-152.781
X81.441Y-160.181
X82.042Y-170.561
X83.566Y-160.666
X84.582Y-170.561
X84.7Y-157.2
X85.09Y-151.384
X85.16Y-164.776
X86.36Y-139.7
X86.614Y-151.384
X86.614Y-160.782
X86.75Y-157.2
X88.9Y-139.7
X88.9Y-142.24
X89.613Y-165.149
X89.613Y-166.37
X89.662Y-160.782
X89.675Y-162.039
X89.675Y-163.563
X91.44Y-139.7
X91.44Y-142.24
X91.44Y-144.78
X91.44Y-147.32
X91.44Y-152.4
X91.44Y-154.94
X91.44Y-157.48
X91.44Y-170.18
X91.44Y-172.72
X92.202Y-153.4
X92.964Y-152.5
X93.078Y-158.102
X93.98Y-139.7
X93.98Y-142.24
X93.98Y-144.78
X93.98Y-147.32
X93.98Y-167.64
X93.98Y-170.18
X93.98Y-172.72
X94.234Y-158.069
X96.52Y-139.7
X96.52Y-142.24
X96.52Y-144.78
X96.52Y-147.32
X96.52Y-152.4
X97.64Y-162.05
X99.06Y-139.7
X99.06Y-142.24
X99.06Y-144.78
X99.06Y-147.32
X99.19Y-162.05
X101.6Y-152.4
X101.6Y-154.94
X101.6Y-162.56
X101.6Y-165.1
X101.7Y-174.6
X101.854Y-159.258
X106.68Y-170.18
X108.492Y-167.528
X109.22Y-170.18
X110.363Y-160.807
X110.49Y-130.302
X111.9Y-160.769
X113.209Y-161.917
X115.189Y-154.559
X116.84Y-134.62
X116.84Y-137.16
X116.84Y-139.7
X116.84Y-144.78
X116.84Y-147.32
X117.348Y-176.022
X117.805Y-150.393
X117.805Y-151.917
X118.897Y-173.584
X119.38Y-134.62
X119.38Y-137.16
X119.38Y-139.7
X120.65Y-175.26
X120.855Y-159.258
X121.92Y-134.62
X121.92Y-137.16
X121.92Y-139.7
X121.92Y-142.24
X121.92Y-149.86
X121.92Y-152.4
X124.206Y-176.022
X124.46Y-147.32
X124.46Y-149.86
X124.46Y-152.4
X125.639Y-154.196
X126.5Y-157.0
X129.024Y-164.204
X129.54Y-134.62
X142.24Y-129.54
X142.24Y-132.08
X142.24Y-134.62
X142.24Y-137.16
X142.24Y-139.7
X142.24Y-142.24
X142.24Y-144.78
X142.24Y-147.32
X142.24Y-149.86
X142.24Y-152.4
T4
X61.976Y-130.81
X64.516Y-130.81
X67.056Y-130.81
X69.596Y-130.81
X71.12Y-179.07
X72.136Y-130.81
X73.66Y-179.07
X74.676Y-130.81
X76.2Y-179.07
X77.216Y-130.81
X78.74Y-179.07
X79.756Y-130.81
X81.28Y-179.07
X82.296Y-130.81
X83.82Y-179.07
X84.836Y-130.81
X86.36Y-179.07
X88.9Y-130.81
X88.9Y-179.07
X91.44Y-130.81
X93.98Y-130.81
X93.98Y-179.07
X96.52Y-130.81
X96.52Y-179.07
X99.06Y-130.81
X99.06Y-179.07
X101.6Y-130.81
X101.6Y-179.07
X104.14Y-130.81
X104.14Y-179.07
X106.68Y-130.81
X106.68Y-179.07
X109.22Y-179.07
X111.76Y-130.81
X111.76Y-179.07
X114.3Y-130.81
X116.84Y-130.81
X116.84Y-179.07
X119.38Y-130.81
X119.38Y-179.07
X121.92Y-130.81
X121.92Y-179.07
X124.46Y-130.81
X124.46Y-179.07
X127.0Y-130.81
X127.0Y-179.07
X129.54Y-130.81
X129.54Y-179.07
X131.826Y-179.07
X134.366Y-179.07
X137.16Y-130.81
X137.16Y-133.35
X137.16Y-135.89
X137.16Y-138.43
X137.16Y-140.97
X137.16Y-143.51
X137.16Y-146.05
X137.16Y-148.59
X137.16Y-151.13
X137.16Y-153.67
X137.16Y-156.21
X137.16Y-158.75
X137.16Y-161.29
X137.16Y-163.83
X137.16Y-166.37
X137.16Y-168.91
X137.16Y-171.45
X137.16Y-173.99
X139.7Y-130.81
X139.7Y-133.35
X139.7Y-135.89
X139.7Y-138.43
X139.7Y-140.97
X139.7Y-143.51
X139.7Y-146.05
X139.7Y-148.59
X139.7Y-151.13
X139.7Y-153.67
X139.7Y-156.21
X139.7Y-158.75
X139.7Y-161.29
X139.7Y-163.83
X139.7Y-166.37
X139.7Y-168.91
X139.7Y-171.45
X139.7Y-173.99
T5
X44.406Y-151.409
X44.406Y-161.519
X45.926Y-153.949
X45.926Y-164.059
T6
X55.646Y-153.289
X55.646Y-155.829
X55.646Y-158.369
X55.646Y-160.909
X58.186Y-154.559
X58.186Y-157.099
X58.186Y-159.639
X58.186Y-162.179
T7
X52.356Y-149.959
X52.356Y-165.509
T8
X57.15Y-179.07
X58.42Y-130.81
X109.22Y-146.05
X109.22Y-173.99
X133.35Y-130.81
X139.7Y-179.07
T3
G00X45.426Y-171.448
M15
G01X44.826Y-171.448
M16
G05
G00X45.426Y-180.088
M15
G01X44.826Y-180.088
M16
G05
G00X49.856Y-171.448
M15
G01X48.756Y-171.448
M16
G05
G00X49.856Y-180.088
M15
G01X48.756Y-180.088
M16
G05
M30
