%TF.GenerationSoftware,KiCad,Pcbnew,9.0.2*%
%TF.CreationDate,2025-05-19T21:22:29-04:00*%
%TF.ProjectId,ArduinoMega_Ethernet,41726475-696e-46f4-9d65-67615f457468,rev?*%
%TF.SameCoordinates,Original*%
%TF.FileFunction,Soldermask,Bot*%
%TF.FilePolarity,Negative*%
%FSLAX46Y46*%
G04 Gerber Fmt 4.6, Leading zero omitted, Abs format (unit mm)*
G04 Created by KiCad (PCBNEW 9.0.2) date 2025-05-19 21:22:29*
%MOMM*%
%LPD*%
G01*
G04 APERTURE LIST*
G04 Aperture macros list*
%AMRoundRect*
0 Rectangle with rounded corners*
0 $1 Rounding radius*
0 $2 $3 $4 $5 $6 $7 $8 $9 X,Y pos of 4 corners*
0 Add a 4 corners polygon primitive as box body*
4,1,4,$2,$3,$4,$5,$6,$7,$8,$9,$2,$3,0*
0 Add four circle primitives for the rounded corners*
1,1,$1+$1,$2,$3*
1,1,$1+$1,$4,$5*
1,1,$1+$1,$6,$7*
1,1,$1+$1,$8,$9*
0 Add four rect primitives between the rounded corners*
20,1,$1+$1,$2,$3,$4,$5,0*
20,1,$1+$1,$4,$5,$6,$7,0*
20,1,$1+$1,$6,$7,$8,$9,0*
20,1,$1+$1,$8,$9,$2,$3,0*%
G04 Aperture macros list end*
%ADD10R,1.700000X1.700000*%
%ADD11C,1.700000*%
%ADD12RoundRect,0.250000X0.625000X-0.350000X0.625000X0.350000X-0.625000X0.350000X-0.625000X-0.350000X0*%
%ADD13O,1.750000X1.200000*%
%ADD14C,3.250000*%
%ADD15C,2.600000*%
%ADD16C,1.890000*%
%ADD17R,1.900000X1.900000*%
%ADD18C,1.900000*%
%ADD19C,3.200000*%
%ADD20C,1.358000*%
%ADD21R,1.358000X1.358000*%
%ADD22C,0.650000*%
%ADD23O,2.100000X1.000000*%
%ADD24O,1.600000X1.000000*%
G04 APERTURE END LIST*
D10*
%TO.C,J7*%
X90350000Y-155700000D03*
D11*
X90350000Y-158240000D03*
%TD*%
D10*
%TO.C,J3*%
X117300000Y-144650000D03*
D11*
X119840000Y-144650000D03*
X122380000Y-144650000D03*
%TD*%
D12*
%TO.C,BT1*%
X88950000Y-143300000D03*
D13*
X88950000Y-141300000D03*
%TD*%
D10*
%TO.C,J2*%
X67790000Y-136950000D03*
D11*
X65250000Y-136950000D03*
X62710000Y-136950000D03*
%TD*%
D10*
%TO.C,J6*%
X117310000Y-141000000D03*
D11*
X119850000Y-141000000D03*
X122390000Y-141000000D03*
%TD*%
D14*
%TO.C,J1*%
X49306000Y-152019000D03*
X49306000Y-163449000D03*
D15*
X52356000Y-149959000D03*
X52356000Y-165509000D03*
D16*
X45926000Y-164059000D03*
X44406000Y-161519000D03*
X45926000Y-153949000D03*
X44406000Y-151409000D03*
D17*
X55646000Y-153289000D03*
D18*
X58186000Y-154559000D03*
X55646000Y-155829000D03*
X58186000Y-157099000D03*
X55646000Y-158369000D03*
X58186000Y-159639000D03*
X55646000Y-160909000D03*
X58186000Y-162179000D03*
%TD*%
D10*
%TO.C,J4*%
X117300000Y-148275000D03*
D11*
X119840000Y-148275000D03*
X122380000Y-148275000D03*
%TD*%
D19*
%TO.C,A1*%
X57150000Y-179070000D03*
X139700000Y-179070000D03*
X109220000Y-173990000D03*
X109220000Y-146050000D03*
X58420000Y-130810000D03*
X133350000Y-130810000D03*
D20*
X106680000Y-130810000D03*
X104140000Y-130810000D03*
X101600000Y-130810000D03*
X99060000Y-130810000D03*
X78740000Y-179070000D03*
X96520000Y-130810000D03*
X93980000Y-130810000D03*
X81280000Y-179070000D03*
X137160000Y-130810000D03*
X139700000Y-130810000D03*
X91440000Y-130810000D03*
X88900000Y-130810000D03*
X84836000Y-130810000D03*
X82296000Y-130810000D03*
X79756000Y-130810000D03*
X77216000Y-130810000D03*
X74676000Y-130810000D03*
X72136000Y-130810000D03*
X111760000Y-130810000D03*
X114300000Y-130810000D03*
X116840000Y-130810000D03*
X119380000Y-130810000D03*
X121920000Y-130810000D03*
X124460000Y-130810000D03*
X127000000Y-130810000D03*
X129540000Y-130810000D03*
X137160000Y-133350000D03*
X139700000Y-133350000D03*
X137160000Y-135890000D03*
X139700000Y-135890000D03*
X137160000Y-138430000D03*
X139700000Y-138430000D03*
X137160000Y-140970000D03*
X139700000Y-140970000D03*
X137160000Y-143510000D03*
X139700000Y-143510000D03*
X137160000Y-146050000D03*
X139700000Y-146050000D03*
X137160000Y-148590000D03*
X139700000Y-148590000D03*
X137160000Y-151130000D03*
X139700000Y-151130000D03*
X137160000Y-153670000D03*
X139700000Y-153670000D03*
X137160000Y-156210000D03*
X139700000Y-156210000D03*
X137160000Y-158750000D03*
X139700000Y-158750000D03*
X137160000Y-161290000D03*
X139700000Y-161290000D03*
X137160000Y-163830000D03*
X139700000Y-163830000D03*
X137160000Y-166370000D03*
X139700000Y-166370000D03*
X137160000Y-168910000D03*
X139700000Y-168910000D03*
X137160000Y-171450000D03*
X139700000Y-171450000D03*
X93980000Y-179070000D03*
X96520000Y-179070000D03*
X99060000Y-179070000D03*
X101600000Y-179070000D03*
X104140000Y-179070000D03*
X106680000Y-179070000D03*
X109220000Y-179070000D03*
X111760000Y-179070000D03*
X116840000Y-179070000D03*
X119380000Y-179070000D03*
X121920000Y-179070000D03*
X124460000Y-179070000D03*
X127000000Y-179070000D03*
X129540000Y-179070000D03*
X131826000Y-179070000D03*
X134366000Y-179070000D03*
X67056000Y-130810000D03*
X83820000Y-179070000D03*
X86360000Y-179070000D03*
X69596000Y-130810000D03*
X137160000Y-173990000D03*
X139700000Y-173990000D03*
X73660000Y-179070000D03*
D21*
X71120000Y-179070000D03*
D20*
X76200000Y-179070000D03*
X61976000Y-130810000D03*
X64516000Y-130810000D03*
X88900000Y-179070000D03*
%TD*%
D10*
%TO.C,J5*%
X117310000Y-137400000D03*
D11*
X119850000Y-137400000D03*
X122390000Y-137400000D03*
%TD*%
D22*
%TO.C,J9*%
X48776000Y-172878000D03*
X48776000Y-178658000D03*
D23*
X49306000Y-171448000D03*
D24*
X45126000Y-171448000D03*
D23*
X49306000Y-180088000D03*
D24*
X45126000Y-180088000D03*
%TD*%
M02*
